<svg version="1.1" id="Layer_1" xmlns="http://www.w3.org/2000/svg" xmlns:xlink="http://www.w3.org/1999/xlink" x="0px" y="0px"
	 width="100%" viewBox="0 0 1024 1024" enable-background="new 0 0 1024 1024" xml:space="preserve">
<path fill="#000000" opacity="1.000000" stroke="none" 
	d="
M246.975342,404.968719 
	C247.037766,405.975494 247.146698,406.998383 245.989105,407.872559 
	C251.344620,407.784607 256.641968,410.901581 261.860748,406.281372 
	C264.008026,404.380310 267.684235,404.558624 270.660309,403.009949 
	C275.568848,400.455658 278.635101,397.179108 280.851532,392.271423 
	C282.221069,389.239014 284.053589,386.302429 285.680786,383.418091 
	C289.966644,375.821075 287.304321,368.196564 287.177826,360.656494 
	C287.124268,357.463715 278.401031,356.011169 276.087860,359.085815 
	C273.833527,362.082275 271.856049,361.360565 268.480377,360.346069 
	C272.384644,356.221008 272.049866,351.541016 271.035004,346.220886 
	C276.251129,348.147522 280.884033,349.347229 284.872711,353.312134 
	C287.065338,355.491638 290.431152,358.181122 294.658386,357.931427 
	C299.255066,357.659851 299.332855,357.853241 300.606110,352.833984 
	C301.452667,357.758606 300.541321,361.439758 295.515228,362.967621 
	C292.592743,363.856049 291.935211,365.953583 291.863190,368.735657 
	C291.688751,375.471893 294.328918,380.793579 299.835938,384.481659 
	C303.313171,386.810364 305.557556,389.831329 307.370087,393.523926 
	C312.217407,403.399384 316.833374,413.341187 320.567566,423.720581 
	C324.222321,433.879181 331.945831,440.733673 340.842804,446.348145 
	C344.732605,448.802826 348.098877,448.237457 351.669708,445.079956 
	C357.965820,439.512573 360.173187,432.157806 361.948822,424.458008 
	C365.792175,407.792236 365.946472,391.184357 361.912201,374.479553 
	C360.163544,367.238953 361.195862,359.527771 358.465240,352.343170 
	C357.193604,348.997345 359.260956,346.601624 362.137512,345.006378 
	C365.196259,343.310059 368.236267,341.557007 371.401917,340.080627 
	C381.649323,335.301605 386.566925,326.471497 389.572083,316.251770 
	C390.676788,312.494904 390.047485,308.682220 386.748688,306.302826 
	C383.822968,304.192505 380.753479,305.101074 377.408569,306.661285 
	C374.254425,308.132507 372.175323,308.904663 372.524414,313.152374 
	C372.795502,316.451050 369.469299,317.973755 366.868225,316.338165 
	C363.976349,314.519714 360.959198,313.033936 357.674500,311.429230 
	C361.430634,310.597839 363.775909,307.448059 367.209839,306.766174 
	C372.040039,305.807037 373.682953,301.540344 376.360443,298.409912 
	C377.199097,297.429382 377.046478,295.469421 375.536407,294.401642 
	C371.385864,291.466766 371.539642,285.517059 367.059753,282.817352 
	C369.718597,278.342926 374.494904,277.511932 378.389557,275.607208 
	C388.153442,270.832092 392.489105,263.027893 392.701965,252.511948 
	C392.745331,250.369461 392.708252,248.225357 392.708252,245.322098 
	C396.675171,246.943878 400.753021,247.558289 403.178802,249.890854 
	C405.741974,252.355499 408.206360,252.705139 411.183075,252.721329 
	C415.182068,252.743088 419.181824,252.746063 423.180359,252.691971 
	C426.140167,252.651962 429.055298,252.854279 431.049744,249.693161 
	C432.507416,247.382843 435.679169,249.389969 437.892639,247.605408 
	C442.028687,244.270828 446.233887,241.178726 449.260986,236.637344 
	C452.194000,232.237106 450.738159,227.213486 445.575439,226.417725 
	C442.810822,225.991592 441.648346,224.505478 440.643066,222.644028 
	C440.896362,221.431107 441.667450,221.111694 442.324768,220.600769 
	C443.950256,219.337311 447.091156,220.334381 447.505890,217.425629 
	C448.096039,213.286316 448.770660,208.245697 446.580658,205.260818 
	C442.739441,200.025330 437.887329,194.011841 432.187683,192.086090 
	C426.464996,190.152557 419.721069,189.282623 412.582581,190.189804 
	C404.874298,191.169388 399.790894,195.347260 394.583649,198.970261 
	C390.045929,202.127411 386.157104,207.757538 386.277008,214.519714 
	C386.343628,218.278824 386.822388,222.196503 383.810059,225.493851 
	C379.286804,224.376953 375.972260,221.011292 371.781250,219.265442 
	C364.736267,216.330750 357.935425,215.893417 351.074036,219.217987 
	C348.657745,220.388763 346.412598,220.422531 342.919678,219.585510 
	C346.620026,215.864655 350.467529,213.937805 354.525421,212.368652 
	C356.065399,211.773163 358.167725,211.792313 358.861908,210.188263 
	C361.122192,204.965515 365.900970,204.605072 370.460480,203.782272 
	C373.828308,203.174515 376.879272,202.259583 378.794617,199.005066 
	C379.415558,197.949997 380.897095,196.553162 381.828186,196.661392 
	C390.239990,197.639420 395.313843,190.973328 401.983032,188.051590 
	C405.192780,186.645401 408.360474,185.145508 411.726715,184.234375 
	C415.010925,183.345459 417.725250,182.187180 419.956848,179.215271 
	C422.944427,175.236618 427.303986,175.798431 430.004150,179.897720 
	C430.740692,181.015945 431.408966,182.157852 432.959442,182.917465 
	C437.242554,173.624252 447.531189,173.098679 454.827271,168.106125 
	C457.852905,166.035751 461.797211,164.996368 464.975403,162.869888 
	C473.340302,157.273056 482.581177,155.902328 492.483795,155.510300 
	C500.954987,155.174911 508.993561,155.606644 517.012695,158.392242 
	C520.967529,159.766022 524.519714,157.444275 527.804382,155.516098 
	C531.917236,153.101746 535.437134,152.878784 539.801575,155.590073 
	C546.959167,160.036591 553.776184,157.104050 556.388855,149.237656 
	C557.596741,145.600739 558.841858,141.976028 560.093384,138.353836 
	C560.914490,135.977173 561.882019,133.642670 563.708618,131.854050 
	C571.192566,124.525726 580.068542,118.882507 588.408936,112.706184 
	C594.590759,108.128387 603.352844,108.651031 611.008423,107.251068 
	C615.049561,106.512054 619.264160,106.522346 623.318115,105.467850 
	C627.360718,104.416328 631.343323,105.166199 635.071472,106.682144 
	C646.024902,111.136063 657.100464,115.365089 667.754517,120.463058 
	C685.490662,128.949814 704.073547,134.267715 723.449036,137.073502 
	C727.596497,137.674103 731.535095,138.880478 735.481079,140.280853 
	C745.946167,143.994781 756.620300,145.668854 767.860046,144.481628 
	C781.045532,143.088852 794.302673,143.404846 806.510376,149.504578 
	C817.833191,155.162186 826.795532,163.188507 831.147461,175.709045 
	C836.339600,190.647110 841.501831,205.614960 848.322815,219.933136 
	C849.978699,223.408966 850.768738,227.157028 851.366516,230.973450 
	C854.127258,248.598907 855.285095,266.348297 855.938660,284.157776 
	C856.353271,295.457642 857.202881,306.741425 857.850464,318.032837 
	C858.523376,329.767090 853.878662,339.824402 847.669250,349.274231 
	C845.803223,352.114044 844.343872,354.843170 843.734802,358.260712 
	C842.485779,365.268799 839.831421,371.676361 834.168579,376.472046 
	C832.937683,377.514465 831.508484,378.521484 830.840393,380.894043 
	C834.769958,383.830750 838.094116,387.520996 838.971619,392.998596 
	C839.962036,399.180450 835.899170,401.975281 831.265625,404.753174 
	C833.766785,407.820282 837.456360,409.873169 835.908508,414.449371 
	C831.770569,411.682800 827.514648,411.281799 823.118896,413.829315 
	C822.130676,414.402039 820.907288,415.103363 819.877075,414.987976 
	C807.408264,413.590912 795.422363,417.333740 783.205017,418.487488 
	C775.565491,419.208954 767.504150,417.693695 760.298462,421.755890 
	C758.801819,422.599640 757.325989,423.292358 757.389709,425.355011 
	C757.623901,432.936005 756.343445,440.631134 759.046204,448.343567 
	C761.097778,447.052399 760.816040,445.196106 760.683594,443.560028 
	C760.294373,438.751831 759.959229,433.923553 759.209045,429.165253 
	C758.616577,425.407013 759.817566,423.484161 763.586060,422.909271 
	C776.747864,420.901459 790.007874,419.844025 803.263916,418.776886 
	C807.650635,418.423767 812.172729,416.835205 816.591980,419.601501 
	C815.610535,422.956329 809.482178,422.058563 810.373596,426.813171 
	C811.084412,430.604523 816.052185,430.051453 817.561890,433.690216 
	C809.671265,435.647217 801.774170,436.405243 793.901306,437.308167 
	C789.111328,437.857513 784.320068,438.396088 779.532776,438.967743 
	C777.761230,439.179291 775.992310,439.805054 776.176392,441.908173 
	C776.935730,450.582794 776.436218,459.564880 781.748596,467.238068 
	C782.694153,468.603790 783.689819,469.973267 785.622192,470.134308 
	C786.977783,469.060852 786.080505,467.695465 785.427063,467.178040 
	C778.796997,461.927734 780.256531,453.990906 778.885986,447.123016 
	C777.859192,441.977234 779.509216,440.713226 784.708801,440.696899 
	C789.332092,440.682404 793.676575,440.274475 798.237976,438.509216 
	C803.598938,436.434601 809.754272,437.501862 815.547363,438.034210 
	C818.272888,438.284668 818.204956,440.764496 817.989929,442.731140 
	C817.464722,447.535706 818.150574,452.493927 817.544006,457.074524 
	C816.891418,462.002350 813.489807,466.520966 809.615845,470.326294 
	C804.848877,475.008759 798.816345,472.559052 793.519531,474.128387 
	C800.876892,475.346802 808.033997,475.123108 815.439514,469.397369 
	C815.179871,479.143860 821.580688,478.075745 826.918274,478.257965 
	C825.191956,487.532562 807.063965,494.268829 795.463501,493.214844 
	C778.348206,491.659882 763.559448,478.790527 761.437744,450.150330 
	C760.242065,459.666595 762.371704,468.279388 766.258423,477.008179 
	C770.426392,486.368530 778.793213,489.875977 786.733765,494.456390 
	C784.890564,497.464966 781.344971,497.365234 779.245239,497.791504 
	C770.620117,499.542542 765.600403,505.124725 761.864136,512.114624 
	C756.948181,521.311707 756.415222,531.390564 757.485596,541.585938 
	C757.586792,542.549744 757.837646,543.825500 758.499573,544.350647 
	C763.537537,548.347290 759.679321,550.662842 756.923706,553.137207 
	C752.832214,556.811157 750.791504,561.758484 748.001221,566.304016 
	C745.622131,570.179688 746.185913,574.861084 742.858459,578.429749 
	C739.495422,582.036499 741.119019,594.701538 744.477539,598.369202 
	C745.808167,599.822327 745.327087,601.373535 744.597412,603.162537 
	C739.802124,601.421814 734.760681,598.991577 730.874634,604.352417 
	C728.979675,606.966553 727.204346,609.975464 726.500000,613.062378 
	C725.716614,616.495483 725.759583,619.708862 730.755676,621.491821 
	C736.812805,623.653564 742.006348,627.936584 746.930298,632.648254 
	C747.001404,632.962524 746.763062,633.196777 746.763062,633.196777 
	C739.160400,633.229004 731.557434,633.225464 723.955261,633.306213 
	C718.877869,633.360168 707.484558,641.150757 705.974304,646.795654 
	C705.294067,649.338501 703.965515,652.875244 700.126221,653.769714 
	C699.577942,650.672058 699.214722,645.560669 700.040283,645.453369 
	C704.557861,644.866638 703.284363,639.949585 706.326355,638.359253 
	C709.601562,636.647034 711.174194,632.535095 715.772583,632.179565 
	C718.063477,632.002380 720.246216,629.858398 722.369507,628.441650 
	C722.973999,628.038269 719.760010,615.541504 718.749756,614.988770 
	C715.597107,613.264160 712.007568,612.185120 708.789551,614.098877 
	C704.814758,616.462646 699.973450,617.703064 697.016296,621.425659 
	C693.827332,625.440063 689.243408,627.972839 686.421326,632.355591 
	C679.670776,642.839294 674.967712,653.385864 682.528809,665.596008 
	C683.844177,667.720093 684.379028,670.069031 680.394043,671.516052 
	C677.554260,672.547241 674.820435,674.642639 672.017578,676.239258 
	C667.491943,678.817200 667.195068,683.855469 670.333740,689.203186 
	C675.173401,697.448975 681.322876,704.715027 686.459961,712.697449 
	C689.242920,717.021912 683.792114,718.680298 682.663818,721.809204 
	C682.253296,722.947693 679.857666,723.616150 678.905823,725.375610 
	C678.240112,726.606262 676.156250,726.728333 675.316895,725.840881 
	C670.604858,720.858887 665.063660,716.418457 661.891052,710.298157 
	C659.044556,704.807190 655.139832,700.259827 651.379578,695.526428 
	C650.462585,694.372192 649.001892,693.939270 647.775146,694.718201 
	C643.543274,697.405762 639.389343,700.220093 635.268127,703.076172 
	C632.461060,705.021606 632.812622,707.126526 634.696899,709.764832 
	C636.486938,712.271179 637.630554,715.239136 638.900085,718.890015 
	C621.670105,709.008423 606.168579,712.031372 591.749878,723.654114 
	C594.041687,724.283203 595.618896,722.688843 597.411133,721.739685 
	C605.624329,717.389893 614.045044,714.247437 623.604736,716.424744 
	C636.330688,719.323303 644.640991,728.468506 646.383972,741.657227 
	C647.902771,753.149353 641.604065,764.590820 630.553589,770.413025 
	C614.793335,778.716797 598.390442,773.685730 590.241150,758.048706 
	C587.182129,752.178955 587.510132,751.222717 593.518372,748.813477 
	C602.470642,745.223572 611.438477,741.672607 620.384033,738.066345 
	C622.060486,737.390503 623.872437,736.899902 625.390320,735.121643 
	C622.656250,729.985168 617.791199,729.886597 613.078796,730.441956 
	C607.457886,731.104370 602.385071,733.473938 599.372742,738.537292 
	C597.653503,741.426941 595.861877,741.620422 593.281433,740.206543 
	C592.115479,739.567749 590.935669,738.951599 589.740723,738.369141 
	C585.411987,736.258972 585.032166,734.832825 587.732483,730.710022 
	C589.742310,727.641357 589.742371,727.641418 589.844788,724.896729 
	C585.881470,727.301392 586.929321,733.238159 582.020142,735.208435 
	C585.699951,742.284180 592.572693,742.877747 599.603271,744.370361 
	C592.391418,746.858887 583.651855,746.700134 582.137695,756.763977 
	C582.137695,755.111877 582.269653,753.447083 582.111328,751.810364 
	C581.735107,747.921204 583.412964,743.716064 579.432861,740.360657 
	C578.270325,739.380676 578.910339,736.253418 578.738403,734.109192 
	C578.175964,727.093811 575.297546,725.489746 569.383057,728.820679 
	C567.700439,729.768311 565.783081,729.246582 563.973450,729.242004 
	C556.659363,729.223511 553.211914,733.679016 556.778870,740.082031 
	C559.197998,744.424561 559.094727,748.554626 559.284668,752.963989 
	C559.383118,755.249695 559.540894,757.329041 561.129272,759.422607 
	C563.496155,762.542175 557.900940,772.256470 553.557983,773.109131 
	C546.728210,774.450073 545.250977,776.606079 546.523865,783.757263 
	C546.876953,785.740723 547.207031,787.672302 546.641907,790.661682 
	C545.560608,786.392151 543.309326,783.710388 541.597473,780.715637 
	C537.955627,774.344482 529.297363,774.263123 525.511292,780.539795 
	C520.075012,789.552307 514.792969,798.452026 515.847168,809.792786 
	C516.244385,814.065735 513.673706,818.366882 514.755249,823.036194 
	C515.384521,825.752563 513.186157,827.340942 510.633087,827.726562 
	C503.697327,828.774231 497.703308,831.774231 492.029266,835.790771 
	C489.711151,837.431763 486.550110,839.594055 484.058716,836.284668 
	C481.840607,833.338257 483.541687,830.543213 486.035339,828.445557 
	C490.853943,824.391907 492.163788,819.090515 491.492279,813.164978 
	C491.065521,809.398926 492.853363,806.689880 495.317780,804.372009 
	C497.952942,801.893494 497.854309,799.567322 495.677887,796.982483 
	C495.034760,796.218750 494.597900,795.218323 493.833130,794.629395 
	C482.678955,786.038208 482.896637,774.157349 484.129028,761.880981 
	C484.480499,758.379883 486.579803,755.547241 487.526398,752.144653 
	C479.899323,753.077454 475.830872,749.182434 476.509521,741.936951 
	C476.662506,740.303833 477.423584,738.190247 475.116943,737.846497 
	C472.835388,737.506531 471.442719,739.242371 471.135925,741.455139 
	C470.358917,747.059204 469.695068,752.679199 469.013733,758.296204 
	C468.780182,760.221375 469.363586,762.292725 466.940674,765.376770 
	C466.940674,761.579529 466.953552,759.089905 466.938110,756.600342 
	C466.898804,750.267944 466.863403,743.935425 466.794830,737.603333 
	C466.738556,732.407837 464.278534,729.731079 459.072113,729.346741 
	C456.592194,729.163696 454.468262,728.899902 452.201843,727.221558 
	C449.544861,725.254028 446.046143,725.483887 444.027069,728.902039 
	C440.800476,734.364502 436.906372,739.539490 433.107819,744.398376 
	C428.862396,749.828979 424.950439,755.600525 420.514618,760.943298 
	C417.726654,757.481567 418.037903,728.263550 420.928314,723.897949 
	C420.051788,722.672607 418.563110,721.787598 418.637817,719.863098 
	C418.715363,717.867432 417.461426,716.341431 415.834656,715.404297 
	C411.060883,712.654419 405.498932,712.198975 400.349915,710.540100 
	C396.282501,709.229614 395.691498,714.459839 393.776917,716.644409 
	C388.569733,722.585999 383.911865,729.087646 379.660919,735.764954 
	C375.916290,741.646912 371.137573,746.728821 367.119812,752.382751 
	C362.600372,758.742737 358.176117,765.383301 352.942078,771.297607 
	C350.360016,774.215271 351.358948,775.045776 354.606903,776.913940 
	C359.265320,779.593323 363.663452,781.412964 369.054413,780.722961 
	C371.217834,780.446045 372.554657,780.021240 374.234253,778.013123 
	C379.028595,772.281006 383.829071,766.533081 387.868256,760.292725 
	C390.976410,755.490662 394.487946,751.084290 398.314270,746.411072 
	C399.665222,748.035339 399.225494,749.909424 399.237000,751.577271 
	C399.313965,762.742676 399.302643,773.908691 399.322052,785.074463 
	C399.334778,792.387146 400.213593,793.427979 407.176208,795.878967 
	C410.300842,796.978882 413.419281,796.561523 416.558838,796.665222 
	C420.713470,796.802429 420.893005,792.984924 422.869446,790.799561 
	C428.699249,784.353455 434.264465,777.713196 439.258423,770.629883 
	C441.375854,767.626526 442.344696,763.742676 446.634338,762.763672 
	C447.567200,764.488281 447.610199,766.484680 447.028961,768.099365 
	C443.140350,778.901917 446.349396,790.244324 444.349762,801.202820 
	C443.698456,804.772034 444.790710,808.319031 449.508484,808.804382 
	C452.062134,809.067139 451.436707,811.274170 453.042969,813.594543 
	C445.678436,811.362183 440.109406,808.643921 435.292084,802.596375 
	C434.163849,807.737122 434.071014,812.023071 436.389404,815.301880 
	C438.765961,818.662842 439.541260,821.953308 438.656403,825.586914 
	C437.602081,829.916382 439.269562,832.806641 442.746674,834.789490 
	C445.676575,836.460205 447.717468,839.103821 450.168610,841.138184 
	C456.156036,837.841370 458.057709,838.549316 460.982574,845.059631 
	C460.768463,845.233337 460.497131,845.636536 460.265930,845.614685 
	C450.349670,844.677673 440.018158,848.085388 430.515564,842.738342 
	C427.869690,841.249451 424.903076,840.608826 421.931061,840.180908 
	C413.343811,838.944397 404.895569,837.328735 396.711304,834.213928 
	C390.804596,831.965820 384.633820,831.173523 378.096100,831.778564 
	C368.485657,832.667969 358.923004,832.472412 349.747314,828.043396 
	C341.973785,824.291199 333.498932,822.079285 325.340576,819.232971 
	C310.641510,814.104736 298.431030,805.308411 285.550812,796.964966 
	C274.382568,789.730408 266.637787,780.217712 258.016113,770.893799 
	C248.885269,761.019287 239.524063,751.271484 228.813309,742.972961 
	C225.645111,740.518372 223.518997,737.120605 221.590378,733.533630 
	C215.573273,722.342651 210.395309,710.719360 207.176270,698.516663 
	C205.503967,692.177307 202.654816,686.909241 199.306778,681.601807 
	C198.059540,679.624695 197.160767,677.436035 197.062714,675.040588 
	C196.782959,668.205994 193.733063,662.773987 189.303360,657.659729 
	C184.140305,651.698792 180.465836,644.732666 178.739441,636.935791 
	C176.960175,628.900085 180.499161,623.632935 188.483078,622.001160 
	C193.210007,621.035095 197.864838,619.670654 202.776215,619.917114 
	C205.066071,620.032043 206.533310,619.180298 206.755463,616.542786 
	C206.908035,614.731567 208.840332,613.623291 209.790955,615.076416 
	C211.809402,618.161743 214.594193,617.142395 216.984741,616.971191 
	C223.188751,616.526917 228.755096,613.878174 234.445053,611.492676 
	C238.317932,609.868896 242.732452,609.875793 246.877106,608.393066 
	C254.360947,605.715820 261.986633,603.308899 269.742584,601.324951 
	C273.975830,600.242126 277.531281,596.913940 282.442230,597.211853 
	C283.841187,597.296753 284.440033,595.121704 284.547424,593.600830 
	C284.838593,589.477966 284.756287,585.424011 281.356262,582.322021 
	C281.125031,582.111084 280.818665,581.715942 280.877167,581.492981 
	C282.257843,576.228821 277.909973,572.448242 277.129730,567.518005 
	C276.047821,560.681274 272.355743,553.972046 267.770721,548.191650 
	C274.296967,561.107361 276.376923,575.517212 281.712402,588.803894 
	C283.437805,593.100586 282.492126,594.868652 278.019470,596.180908 
	C261.106049,601.143188 244.301102,606.475403 227.459930,611.683289 
	C225.227097,612.373901 223.212738,612.069275 220.974884,610.340820 
	C224.661514,607.923035 228.217255,605.879456 232.354446,604.748474 
	C238.589127,603.044373 240.205765,599.522156 237.853149,593.534119 
	C236.586227,590.309509 239.286835,589.851501 241.186325,589.193054 
	C246.833740,587.235535 252.494843,585.271912 258.259766,583.714783 
	C262.237762,582.640259 263.747589,581.208069 262.198547,576.772095 
	C259.740173,569.731995 258.457611,562.235291 252.455719,556.340942 
	C252.053833,555.999512 251.729202,555.687439 251.729202,555.687439 
	C243.582230,549.146423 234.179413,548.887146 224.446915,554.935181 
	C217.746826,559.098816 213.885315,568.687561 215.852188,577.360596 
	C217.190002,583.259888 219.113022,589.026489 221.143646,596.147461 
	C216.792084,593.131775 216.563644,589.199890 214.719025,586.307800 
	C213.928650,585.068604 213.663574,583.507019 213.018799,582.159302 
	C212.145508,580.333923 211.125427,578.409912 208.767075,578.451599 
	C206.305435,578.495117 206.216171,580.663269 205.798950,582.425476 
	C205.599762,583.266724 205.282806,584.000732 204.278168,584.117920 
	C198.216095,574.996826 200.206635,557.727356 205.603363,550.446472 
	C220.551270,530.279724 239.383209,527.173523 261.192993,540.007263 
	C257.177063,535.652588 252.455307,532.244690 247.236954,531.650879 
	C238.757309,530.685791 229.958282,529.539612 221.664917,533.351074 
	C221.517349,533.418884 221.294769,533.369751 221.183975,533.464722 
	C215.542007,538.301575 208.031906,540.284180 203.962219,547.792969 
	C198.568283,557.745056 197.676376,568.035156 197.798462,578.828735 
	C196.265213,573.342163 194.187393,568.074951 194.710159,562.204773 
	C194.915039,559.903992 194.890839,557.673218 195.592346,555.389526 
	C196.868179,551.236084 197.502686,546.967407 196.677948,542.567322 
	C195.912964,538.485901 197.411545,535.656982 201.747559,534.946228 
	C205.619965,534.311584 205.404800,531.997681 203.888489,529.525696 
	C200.515015,524.026062 195.343964,520.789185 189.334442,518.826904 
	C186.780518,517.992920 183.981323,517.521545 183.296371,514.350220 
	C182.617569,511.207336 184.703979,509.194885 186.905090,507.748688 
	C192.386841,504.147095 194.655045,499.151611 193.898529,492.810974 
	C193.152206,486.555756 196.078278,481.460754 198.840210,476.365356 
	C200.769714,472.805695 201.082047,469.604736 198.995667,466.025818 
	C192.892990,455.557526 200.944931,441.372070 210.604996,437.779388 
	C220.960373,433.928131 221.203094,432.816498 214.537354,424.110870 
	C214.154312,423.610596 213.942169,422.979462 213.474503,422.065125 
	C218.450821,420.608856 221.432220,424.430634 225.061035,425.869110 
	C228.567932,427.259216 230.526886,431.078278 234.674255,432.096100 
	C237.476700,432.783844 235.165070,435.694672 235.108994,437.839600 
	C238.302582,438.777039 240.928009,437.553925 244.415512,436.137085 
	C235.390930,430.033508 226.964874,424.202118 218.397476,418.586365 
	C212.551727,414.754547 210.663879,407.781128 214.354263,401.912140 
	C216.197769,398.980316 218.393219,400.634308 220.358597,401.876251 
	C228.381088,406.945648 236.378479,412.054901 244.369949,417.173157 
	C245.450165,417.865021 246.304337,419.139526 247.818314,418.282318 
	C248.406174,417.645416 248.376755,416.744873 247.819611,416.498138 
	C240.193893,413.120941 234.603882,406.683075 227.198807,402.893219 
	C224.726959,401.628174 222.499954,399.480316 220.074387,397.830048 
	C216.351120,395.296753 211.476379,396.421997 210.632080,400.662231 
	C209.624878,405.720642 209.894211,410.936737 210.177124,416.104401 
	C210.282944,418.037292 212.203125,418.383453 213.282257,419.931183 
	C210.006500,420.043854 207.830002,419.281311 208.652328,415.775330 
	C209.307999,412.979889 206.926361,411.603333 206.269470,409.444519 
	C204.124496,402.395355 206.162903,395.842102 212.630920,391.438812 
	C215.220612,389.675842 215.805817,387.683868 216.091156,384.844879 
	C217.206406,373.748566 218.907898,362.433472 223.641678,352.541687 
	C226.692413,346.166840 230.183548,339.238129 235.764587,334.064453 
	C239.104691,330.968140 238.692261,328.048004 234.679016,326.365143 
	C224.710861,322.185242 223.089172,306.079315 232.211807,299.839325 
	C234.265778,298.434387 236.302063,297.003021 238.373886,295.624969 
	C239.617020,294.798126 241.551193,294.158081 241.536041,292.653381 
	C241.453537,284.455261 250.437744,282.354980 252.770721,275.594238 
	C253.734680,272.800812 258.336029,272.088501 260.716675,274.118591 
	C266.411774,278.975006 272.039734,277.617401 277.966278,275.322327 
	C278.756927,275.016174 279.551941,274.781342 280.710327,276.231659 
	C274.363068,281.682373 274.896118,290.076508 274.086243,297.263000 
	C273.441071,302.988129 273.412140,310.500336 278.590668,315.613770 
	C281.473083,318.459961 284.663940,320.993805 287.824585,323.763763 
	C285.078217,326.663239 282.756165,326.904907 281.406281,324.883606 
	C277.457611,318.970825 270.680969,317.208313 265.247528,313.599945 
	C260.850525,310.679932 256.485168,307.607635 251.903214,304.935089 
	C249.036789,303.263214 246.156235,301.216766 243.019699,300.521088 
	C239.993027,299.849762 236.055176,299.026489 233.799545,302.406586 
	C230.860687,306.810486 227.886902,311.386688 229.490051,317.163391 
	C229.697159,317.909576 230.336594,319.077545 230.844330,319.114777 
	C235.966873,319.490112 238.900101,323.627289 242.800339,326.017639 
	C251.083313,331.094025 259.098175,336.606659 267.265686,341.874176 
	C268.335663,342.564209 268.461639,343.339203 268.179199,344.673279 
	C264.557526,345.886963 260.825226,345.182312 256.677277,344.809692 
	C257.408295,344.185150 257.826996,343.827454 258.257629,343.459564 
	C254.273590,341.844696 254.309845,341.888153 251.053757,344.605164 
	C250.500107,345.067169 249.464386,345.185608 248.686172,345.109039 
	C238.018051,344.059723 232.159744,351.692322 227.086899,358.674316 
	C223.436981,363.697845 223.107498,370.698456 223.020645,377.456207 
	C222.924698,384.921661 224.859970,391.224640 229.342102,396.677246 
	C233.595306,401.851318 238.142487,407.333313 246.641235,405.076050 
	C247.007492,404.996643 246.975342,404.968719 246.975342,404.968719 
M303.000580,649.000793 
	C303.000580,649.000793 303.010254,649.011902 302.579407,648.432922 
	C294.899536,644.175415 288.092560,645.863586 282.249481,653.474915 
	C277.869293,659.180664 278.567963,664.749817 283.955261,670.851135 
	C287.521606,674.890198 291.947266,675.785645 296.589691,674.349731 
	C302.761047,672.440857 307.529144,668.434509 308.662903,661.699707 
	C309.544739,656.461548 308.042297,651.814880 303.000580,649.000793 
M758.373718,390.160004 
	C761.535461,388.392456 762.897095,384.754547 763.873596,382.068451 
	C766.117859,375.894592 770.125244,370.747314 772.489441,364.810211 
	C774.171631,360.585785 777.047485,360.194733 780.317444,360.917206 
	C784.500122,361.841217 788.783569,361.659668 792.963318,363.303833 
	C799.588501,365.909973 806.792297,364.948364 813.724854,364.450500 
	C818.478699,364.109100 818.646667,362.161804 816.758911,357.847870 
	C815.509155,354.991882 811.598633,354.173035 811.804199,350.804901 
	C812.011169,347.413116 809.128174,345.740997 807.422546,345.760101 
	C800.582336,345.836700 794.821594,340.410461 787.739746,342.256287 
	C786.544373,342.567841 785.072693,342.491913 783.600830,341.248291 
	C784.247559,335.909576 787.810486,331.402130 790.303162,326.949036 
	C795.431641,317.787170 791.778992,310.882965 787.170593,303.616211 
	C786.465820,302.504944 786.500183,300.452454 784.277283,301.082520 
	C783.594177,301.989380 784.075562,302.799194 784.568665,303.383453 
	C793.095337,313.487885 791.916931,323.497223 784.366821,333.483032 
	C784.069092,333.876770 783.788086,334.332520 783.667419,334.802582 
	C782.949097,337.598999 779.972778,339.605011 780.733398,343.434174 
	C786.972168,344.244141 793.191711,345.112122 799.427063,345.845978 
	C807.539917,346.800873 813.701660,353.781433 813.978760,362.762390 
	C813.201294,362.812775 812.396057,362.992889 811.625854,362.895721 
	C800.412659,361.480499 789.201904,360.045044 777.996033,358.572479 
	C775.297852,358.217926 772.770691,357.704102 771.284729,361.026520 
	C766.947571,370.723785 762.449829,380.349213 757.482056,390.416321 
	C755.485107,392.767975 755.099365,396.171722 752.647644,398.220032 
	C750.065125,397.198914 749.955444,394.289246 747.817688,392.304504 
	C747.308167,391.074371 747.061829,389.622894 746.244751,388.651398 
	C742.068115,383.685150 743.560486,379.050079 746.391479,374.070099 
	C749.732544,368.192902 753.301941,362.378723 755.690063,355.362976 
	C750.722534,353.870026 745.952087,353.738281 741.239197,353.188354 
	C732.834229,352.207672 723.857300,352.089966 721.365723,341.174042 
	C720.973022,339.453857 719.306763,337.831604 720.616821,336.045837 
	C721.957581,334.218140 723.945129,335.218353 725.716919,335.431793 
	C737.099426,336.802826 748.488647,338.119202 759.864746,339.540802 
	C762.081360,339.817810 763.244324,338.910034 764.144653,337.023590 
	C767.874268,329.208527 771.692749,321.435944 775.445068,313.631653 
	C775.837463,312.815552 776.569824,311.774353 775.092712,311.318390 
	C769.029419,319.665375 766.955627,330.236328 759.727295,338.623016 
	C755.753601,334.721313 750.995361,335.384827 746.372620,335.298767 
	C743.545410,335.246185 740.016907,336.157532 738.027161,334.818054 
	C732.426453,331.047699 726.433655,332.793488 720.609009,332.258942 
	C717.045532,331.931976 715.873108,333.661469 716.062622,337.011780 
	C716.212402,339.658508 717.322205,341.694061 718.950500,343.701050 
	C719.961609,344.947235 722.272949,345.765991 721.084167,348.392303 
	C720.516846,348.392303 719.442200,348.590942 719.342346,348.362793 
	C717.611450,344.409668 712.003113,343.082977 712.321960,337.623657 
	C712.422424,335.904144 710.761902,334.340271 709.109009,333.402679 
	C707.774719,332.645752 706.442200,331.943085 706.068359,330.312469 
	C705.409668,327.439026 703.567688,326.436646 700.710266,326.064331 
	C696.830322,325.558655 690.901001,318.297363 690.643677,313.815430 
	C691.811646,316.252258 694.648865,314.970032 695.659302,317.039062 
	C697.245605,320.287079 700.667542,321.076263 703.293884,322.966522 
	C708.827637,326.949219 714.987610,325.544037 721.004761,325.766907 
	C727.280334,325.999390 732.305603,323.085083 737.178223,319.693115 
	C739.016846,318.413208 739.462830,316.016541 741.686646,314.828400 
	C751.342102,309.669769 758.275574,301.217468 765.677368,293.543793 
	C773.939636,284.978088 773.462280,284.517670 766.038818,275.430511 
	C761.516968,269.895264 758.540039,270.008789 753.344788,274.917023 
	C743.564331,284.157196 733.417358,293.002747 722.811218,301.298035 
	C716.931274,305.896912 711.916565,304.993134 705.639038,298.345245 
	C702.623596,295.151917 702.750610,287.542969 705.880798,283.666016 
	C710.711182,277.683228 717.035461,273.144073 722.043335,267.433838 
	C726.553833,262.290710 731.656799,257.796783 736.290955,252.814407 
	C739.117676,249.775314 739.534973,247.523727 736.234680,244.717209 
	C734.382263,243.141953 732.315674,241.979950 730.894287,239.723236 
	C728.040039,235.191360 722.700500,235.042465 718.713379,238.859161 
	C715.428345,242.003876 712.576599,245.839264 709.164124,248.514359 
	C701.085022,254.847656 695.319397,263.490204 687.109375,269.494781 
	C683.658325,272.018829 685.224731,275.953979 683.213989,278.681641 
	C679.204712,284.120667 679.376282,294.563171 682.807007,300.071045 
	C685.256470,304.003662 686.702209,308.561493 688.612915,312.878784 
	C686.363770,314.449982 683.378540,314.378448 683.196655,317.796051 
	C682.789307,325.447845 687.260376,330.682526 694.840515,331.002869 
	C696.338501,331.066193 697.871094,330.940094 699.328125,331.216064 
	C702.700378,331.854889 704.104492,334.110901 703.553772,337.396973 
	C702.820618,341.772064 698.755859,345.683929 694.207031,345.747467 
	C689.753540,345.809723 687.127075,347.821777 685.157593,351.542267 
	C682.654907,356.269958 679.905518,360.825745 674.807861,363.370483 
	C668.683350,366.427765 662.501709,369.455536 655.875183,371.114624 
	C647.423462,373.230682 638.881897,374.942810 631.155396,368.434662 
	C625.047119,363.289612 619.972717,357.561340 617.356628,349.836182 
	C615.488892,344.320831 613.456299,338.842621 611.146912,333.499237 
	C605.973450,321.529358 595.314636,314.386810 586.144409,306.038605 
	C579.640259,300.117523 570.979370,297.129242 564.322693,291.259705 
	C563.496094,290.530792 562.246765,290.112610 561.128052,289.909180 
	C548.179321,287.553986 535.307129,285.709564 522.115662,289.017151 
	C506.441864,292.947174 490.693756,296.546204 474.329102,292.093872 
	C462.504700,288.876801 450.626526,288.309570 438.264526,290.620605 
	C428.522736,292.441772 420.266602,295.187744 413.466461,302.789734 
	C406.240814,310.867401 404.725098,320.621948 411.515747,329.328339 
	C415.200165,334.052155 418.839630,338.760864 422.083160,343.789764 
	C423.359497,345.768677 425.091217,347.301300 426.970734,348.735046 
	C432.131989,352.672089 437.520691,356.388428 442.240631,360.809937 
	C451.344360,369.338104 451.477844,377.009247 442.615601,385.694794 
	C437.040344,391.158844 434.116302,397.683685 431.595276,404.905792 
	C426.481842,419.554260 420.636383,433.724915 406.045197,442.314331 
	C398.015228,447.041351 393.082153,454.885132 392.366608,464.505005 
	C391.637695,474.304626 391.588898,484.127136 392.597107,493.956757 
	C393.144806,499.296509 394.949036,504.021149 397.954590,508.281769 
	C401.576080,513.415527 403.797150,519.116760 405.490875,525.069397 
	C408.134460,534.360474 410.482910,543.741150 413.343811,552.963562 
	C417.425873,566.122498 423.536591,578.303833 432.518005,588.850220 
	C444.413818,602.818726 457.762360,615.354980 471.199036,627.813049 
	C475.213776,631.535339 479.607697,634.223877 484.688538,636.091736 
	C492.815063,639.079346 500.882233,642.231018 508.942535,645.394775 
	C511.947540,646.574219 514.963135,647.492676 518.184082,646.670471 
	C526.055908,644.661072 532.773743,646.239685 538.668030,652.145020 
	C542.987183,656.472351 542.850098,659.077209 537.067749,660.964966 
	C529.669983,663.380127 524.171387,667.546692 521.814270,675.289185 
	C521.241455,677.170593 520.386047,679.120300 519.151917,680.619995 
	C513.181519,687.875122 509.899536,696.353394 507.388794,705.240723 
	C506.529541,708.282349 505.583496,711.310242 503.746429,713.968384 
	C501.178253,717.684448 501.985657,720.919067 505.422913,723.543091 
	C507.575470,725.186279 509.434021,726.970093 510.680817,729.438110 
	C514.597229,737.190979 522.417175,739.742188 530.136292,735.780151 
	C535.462463,733.046326 540.725098,730.183289 546.372314,728.147888 
	C547.964966,727.573914 548.843445,726.610718 549.049500,724.926331 
	C549.432800,721.792297 550.160034,718.718384 550.035583,715.504089 
	C549.860229,710.975830 550.470947,706.520935 552.341980,702.328125 
	C557.249939,691.329834 565.979431,684.507507 576.900146,680.253723 
	C595.340149,673.071045 613.313904,664.724731 631.729736,657.577576 
	C642.719116,653.312683 654.923401,651.570312 665.849792,659.768372 
	C669.388977,662.423889 671.228333,661.769653 672.082886,657.351562 
	C673.570984,649.658997 676.795288,642.490540 678.442749,634.861938 
	C678.897522,632.756104 679.140625,630.424194 680.237854,628.669312 
	C684.477478,621.888062 688.390686,615.009094 691.275574,607.489014 
	C692.429199,604.481995 692.534912,602.467896 690.043396,600.531067 
	C688.473267,599.310425 686.851013,598.151855 685.204163,597.036194 
	C683.216614,595.689697 682.288391,593.620178 683.984802,591.982666 
	C690.735718,585.466187 693.950195,576.196594 701.281860,570.168640 
	C704.924683,567.173523 707.189453,563.230103 709.595886,559.153931 
	C716.954895,546.688538 718.081543,532.290161 722.427856,518.945984 
	C727.790222,502.482483 731.262573,485.281158 732.342407,467.658569 
	C733.108276,455.159882 727.702026,445.227325 722.393372,435.066803 
	C719.074890,428.715240 716.536926,422.407745 719.814148,415.669647 
	C722.799683,409.531281 722.487244,403.858795 719.926941,397.901215 
	C716.162476,389.141418 718.706543,380.878754 722.240662,372.814697 
	C723.320312,370.351044 725.572571,368.697693 728.085266,367.572449 
	C733.908936,364.964325 734.114136,364.011780 730.076477,359.655914 
	C731.544006,356.591980 736.859009,360.202942 737.908569,354.808624 
	C739.647339,354.808624 741.979187,354.930176 744.292786,354.776917 
	C747.005432,354.597290 749.165771,356.166107 750.662537,357.733795 
	C752.494324,359.652344 749.731018,361.096619 748.801819,362.712341 
	C748.409729,363.394104 748.564087,364.375580 748.219177,365.101532 
	C746.745056,368.203491 745.628052,371.614624 743.550964,374.261841 
	C739.047180,380.001770 741.159912,389.628418 747.730591,393.346527 
	C746.838989,396.141479 747.831299,398.746277 750.313232,399.459869 
	C753.006653,400.234222 756.576111,400.459564 757.505432,396.389069 
	C757.977600,394.320801 757.836060,392.112488 758.373718,390.160004 
M358.467590,735.067871 
	C362.079071,735.283691 364.312103,733.180298 366.857300,730.907898 
	C369.425171,728.615234 370.332611,725.714478 371.890747,722.988953 
	C374.068451,719.179626 375.185455,714.981018 376.495880,710.928528 
	C378.309479,705.320068 372.224640,700.774475 373.424194,694.985596 
	C373.448395,694.868774 373.253448,694.712036 373.172974,694.567200 
	C369.417480,687.806824 363.089935,683.598511 357.206726,679.106934 
	C352.425903,675.457092 346.561707,673.985718 340.453491,674.395813 
	C332.789307,674.910278 332.424591,675.387329 332.294067,682.918945 
	C332.268524,684.390564 332.575012,685.925049 331.774078,687.201538 
	C328.048584,688.138977 325.011047,686.628601 322.320068,684.655029 
	C317.197540,687.173218 315.332336,692.137207 313.574799,696.467346 
	C309.675140,706.075012 309.736633,709.372498 313.487213,719.725586 
	C315.218353,724.504395 318.838318,728.809814 322.920959,731.793701 
	C327.704742,735.289978 332.083191,740.662903 339.313477,738.979492 
	C339.710754,738.887024 340.269409,739.244446 340.683350,739.503601 
	C346.415100,743.091675 351.322052,737.337524 356.853638,738.009583 
	C357.801666,738.124756 357.758698,736.074280 357.992249,734.999023 
	C357.992249,734.999023 357.954681,735.024292 358.467590,735.067871 
M628.292236,273.631592 
	C631.554871,279.180908 640.987000,282.851257 645.093933,280.007172 
	C652.884766,274.611969 660.104309,268.456757 667.848206,262.964508 
	C674.087769,258.539154 680.108948,253.467224 686.362366,249.257614 
	C692.598083,245.059875 697.199646,238.201965 705.113708,236.492096 
	C705.527039,236.402802 705.980896,235.915558 706.177185,235.500656 
	C707.694397,232.293259 710.156433,230.593399 713.504028,229.228683 
	C715.583008,228.381165 718.978333,227.317505 719.207275,223.369583 
	C715.611023,223.854645 713.499084,226.093567 711.166260,227.814713 
	C689.099182,244.095718 667.025574,260.368744 645.072571,276.802765 
	C641.606689,279.397308 638.825928,279.959656 635.465698,276.873383 
	C633.390686,274.967468 630.838013,273.634064 628.066589,272.276703 
	C628.132446,270.467255 629.623352,269.869019 630.820984,269.002136 
	C656.843262,250.165894 682.896912,231.370850 708.113647,211.453766 
	C710.476685,209.587341 712.558289,208.998016 715.221863,211.074417 
	C716.924194,212.401382 718.506165,214.455292 721.207581,214.026001 
	C722.145508,211.686142 720.745483,210.955154 718.996460,210.450226 
	C718.056763,210.178955 716.760559,210.221420 716.230530,209.603287 
	C713.051575,205.896088 710.432556,207.267242 706.880981,209.488525 
	C702.692261,212.108276 699.349487,215.748749 695.207886,218.482986 
	C689.212463,222.441101 682.326965,225.945557 677.758667,232.111176 
	C676.589050,233.689819 674.473938,234.836197 672.737000,235.838348 
	C665.416687,240.062027 658.699463,245.014999 652.280579,250.492111 
	C649.841309,252.573471 646.640808,253.762772 643.004333,255.796524 
	C642.282715,247.544739 646.994934,241.919434 649.991394,236.683990 
	C654.367188,229.038544 657.109009,220.607101 661.969116,213.363129 
	C664.204041,210.032089 663.864868,205.681702 667.325256,202.897705 
	C669.720215,200.970917 669.078979,195.169113 666.758301,194.635223 
	C662.114746,193.566940 658.305969,190.980576 654.243469,188.783752 
	C652.630249,187.911362 650.815247,188.153107 649.140503,189.471970 
	C646.552246,191.510208 646.208557,194.876968 644.601379,197.095337 
	C639.808411,203.710861 637.244690,211.345245 633.914490,218.533569 
	C632.642639,221.278763 630.310608,222.973145 629.370178,225.654617 
	C626.371887,234.203171 622.049255,242.128281 617.854675,250.109177 
	C616.165161,253.323807 618.106079,261.279510 621.192139,261.272034 
	C625.460632,261.261719 627.244690,264.729828 630.065796,265.418732 
	C631.356628,268.921661 623.027100,268.649323 628.292236,273.631592 
M617.359924,173.555847 
	C614.586304,171.609573 612.449707,171.625565 610.361938,174.854080 
	C608.398010,177.891129 607.259888,180.955093 607.294983,184.539169 
	C607.314392,186.518066 607.659424,188.652496 606.439575,190.376282 
	C602.906311,195.368973 603.177246,201.559067 601.682251,207.082764 
	C600.032959,213.176498 597.995483,218.651413 594.188782,223.528854 
	C590.569275,228.166397 585.499329,226.147324 581.175354,225.575806 
	C577.713318,225.118195 575.699463,221.918533 574.828186,218.134827 
	C577.958923,216.839066 579.802795,219.106323 581.953064,219.987686 
	C586.507629,221.854568 590.989197,220.917572 592.271545,217.334305 
	C594.023010,212.440063 595.064209,207.140762 593.901794,202.158691 
	C592.866943,197.723297 587.980164,198.085190 584.310852,197.310928 
	C584.152039,197.277420 584.010986,197.167343 583.856079,197.107117 
	C578.964661,195.205414 576.781738,196.835541 577.355774,202.246780 
	C577.644043,204.965271 577.627930,207.380768 575.462158,209.549927 
	C574.166748,207.854599 575.052185,206.496002 575.228760,205.080292 
	C575.858643,200.032150 578.107727,195.214386 578.484253,190.334915 
	C578.916870,184.728714 583.371338,180.168579 581.915222,174.294525 
	C581.701416,173.431702 583.017456,173.204666 583.515930,172.629425 
	C585.376221,170.482727 584.874817,167.936295 584.210876,165.537476 
	C583.592651,163.303665 581.570068,163.525696 579.724060,163.270187 
	C576.475220,162.820496 573.234619,162.462234 570.260620,160.597687 
	C568.240295,159.331024 564.634583,158.030685 563.603149,160.652954 
	C562.225830,164.154831 559.026062,167.346878 559.512146,171.144485 
	C560.333679,177.562561 554.994263,182.453033 555.871887,188.727219 
	C555.945862,189.256027 555.358032,189.911514 555.004211,190.460831 
	C551.470398,195.947006 551.200378,202.457840 550.558044,208.483795 
	C549.711426,216.427185 548.631897,225.129105 556.053650,231.391724 
	C556.380737,238.946854 564.046631,238.862091 568.190796,242.207123 
	C569.996094,243.664261 572.999329,246.156174 576.830444,245.866425 
	C584.281494,245.302917 591.803345,245.686707 599.295715,245.650635 
	C600.753845,245.643631 602.168884,245.827835 603.462036,244.576523 
	C606.064209,242.058624 608.902588,239.786621 611.605164,237.370316 
	C615.838806,233.585144 618.454651,228.416183 620.361633,223.481857 
	C622.641968,217.581345 622.162720,210.695602 625.798889,205.001495 
	C626.468018,203.953659 626.831421,202.402267 626.659973,201.177994 
	C625.792297,194.981415 631.567627,190.029694 629.817810,183.718475 
	C629.778015,183.575012 629.844177,183.382507 629.907898,183.232895 
	C632.435242,177.293991 631.151367,175.542557 624.351318,175.276978 
	C622.130493,175.190247 619.651672,176.179718 617.359924,173.555847 
M447.382324,187.153244 
	C451.030701,192.628616 450.296143,198.837646 450.305145,204.906342 
	C450.308411,207.109863 450.228699,210.518875 451.650330,210.932999 
	C455.215851,211.971634 454.026276,214.480194 454.143768,216.402206 
	C454.417480,220.879242 454.154541,225.387039 454.362885,229.870590 
	C454.688873,236.887100 458.921295,240.187424 465.577637,238.986877 
	C467.360596,238.665283 469.240845,238.522110 471.035339,238.703598 
	C474.416077,239.045502 475.743195,237.549622 476.198273,234.329422 
	C477.236542,226.982483 476.728210,219.779770 474.309631,212.811829 
	C471.612152,205.040359 475.866150,194.968765 482.762848,194.919037 
	C488.314117,194.878998 489.125031,192.314407 488.931610,187.982681 
	C488.791046,184.834381 488.720856,181.682877 488.625183,178.532623 
	C488.580719,177.069260 488.010071,176.037552 486.540405,175.493561 
	C480.992981,173.440231 473.247009,175.802765 469.488495,180.680450 
	C465.360107,176.360474 460.092438,178.582230 455.359985,178.415543 
	C449.011810,178.191986 447.713257,179.768219 447.382324,187.153244 
M271.307892,639.833435 
	C272.393707,638.801636 273.457306,637.745178 274.568848,636.741760 
	C284.699310,627.597168 297.587250,626.474609 308.952759,634.040344 
	C316.542297,639.092407 320.904266,646.291138 321.507111,655.175659 
	C330.326233,653.515564 331.011444,663.252136 336.769653,665.516663 
	C335.091858,663.830994 335.264832,661.417847 333.888214,659.493652 
	C329.969330,654.016052 322.226868,652.135681 320.359772,644.833069 
	C319.961975,643.277283 319.736908,641.024536 318.668854,640.401489 
	C312.864136,637.015320 310.238708,629.951233 302.781067,628.172485 
	C296.073883,626.572693 290.064301,624.893921 283.405487,628.499939 
	C280.881866,629.866638 278.484619,632.263245 276.292664,632.770081 
	C266.425568,635.051697 263.909485,644.022644 261.943665,650.843994 
	C258.602325,662.438293 262.377258,673.760925 271.496063,682.585205 
	C272.509399,683.565857 273.323334,683.947937 274.867889,682.131226 
	C268.570068,677.001953 264.520782,670.281555 263.376495,662.186768 
	C262.185333,653.760498 264.934479,646.457581 271.307892,639.833435 
M492.217743,224.369797 
	C491.386475,229.257034 495.242188,231.534912 498.005737,234.603516 
	C495.310883,238.828705 495.195129,243.570267 495.304688,248.408813 
	C495.369934,251.289444 496.442657,252.546646 499.420074,252.728760 
	C507.233429,253.206635 508.752747,251.648575 512.103088,244.284332 
	C513.777100,240.604752 513.426880,236.163422 515.685425,233.329620 
	C519.543274,228.489197 517.914429,223.300903 517.085266,218.758514 
	C516.626099,216.243256 514.719666,212.093002 510.746857,210.752472 
	C502.111176,207.838547 492.396851,214.426361 492.217743,224.369797 
M201.203964,457.588867 
	C201.514999,459.585632 200.133728,462.736267 202.859756,463.226898 
	C207.682266,464.094818 212.863464,464.819794 217.167374,461.407928 
	C218.255814,460.545105 219.115204,459.606232 220.521240,459.741425 
	C233.196548,460.960510 244.283401,452.980621 256.851593,453.483154 
	C258.797882,453.561005 259.905304,451.943817 260.891815,449.746124 
	C241.807846,453.828094 223.117783,457.825806 204.323776,461.845734 
	C203.417282,457.623413 204.998947,454.669586 205.216263,451.578278 
	C205.566116,446.601410 208.236252,444.459412 213.065186,443.643585 
	C219.522247,442.552704 225.859955,440.755219 233.493149,438.970245 
	C223.490799,436.869781 215.413193,440.911102 206.990891,441.477173 
	C206.364914,441.519226 205.366653,442.472015 205.282608,443.100586 
	C204.645386,447.865875 201.199005,451.777924 201.203964,457.588867 
M206.118073,483.559113 
	C207.668701,479.929169 210.466080,477.041290 212.114639,473.584900 
	C199.250809,484.373962 198.731506,497.841217 204.414581,512.314331 
	C208.868423,523.656921 218.781235,527.592834 229.719879,529.810974 
	C237.136826,531.315063 246.939911,528.266052 250.929489,522.552795 
	C235.340454,529.752625 221.079193,530.453247 209.963669,516.304138 
	C202.415497,506.695984 201.817825,495.598267 206.118073,483.559113 
M304.368286,691.886597 
	C296.138336,698.625061 287.798676,705.235779 279.732239,712.164612 
	C276.487061,714.952148 274.320679,714.962036 271.561859,711.595032 
	C269.800232,709.445007 268.731750,706.368103 265.218781,705.124512 
	C265.382324,709.853271 269.074158,711.439636 271.274872,714.018982 
	C273.784637,716.960632 277.865662,716.667236 279.789337,714.864624 
	C285.525696,709.488953 292.428497,705.625488 297.921387,699.958923 
	C302.673065,695.056946 309.067383,691.987122 314.059448,687.515442 
	C319.400330,682.731262 324.513031,677.931702 330.641907,674.087952 
	C332.268890,673.067566 336.035156,671.829224 335.075775,667.053894 
	C324.665588,675.486206 314.803467,683.474609 304.368286,691.886597 
M606.904602,755.396545 
	C610.915955,761.149475 616.831055,762.558777 623.381042,759.322021 
	C629.797668,756.151184 631.814148,752.043335 629.824646,745.555054 
	C622.009644,748.121399 614.381470,751.091187 606.904602,755.396545 
M240.708527,493.994263 
	C243.038895,487.814789 241.787445,480.793488 245.265686,474.739929 
	C242.329239,471.843262 241.896103,478.200104 238.920273,475.971191 
	C237.262955,473.875214 239.952225,470.245972 237.087860,467.837677 
	C237.612228,477.517365 236.750473,487.248444 238.160736,496.877563 
	C240.296585,496.718536 240.452286,495.700256 240.708527,493.994263 
M224.288803,485.115570 
	C216.537796,489.539917 214.206299,498.631500 219.640274,502.762115 
	C220.525085,498.203949 217.481415,492.581879 222.858932,489.031036 
	C228.415649,493.599152 225.264572,499.944214 226.755829,505.551544 
	C226.755829,499.505676 226.823151,493.890686 226.703949,488.279633 
	C226.677368,487.028351 227.401276,485.031921 224.288803,485.115570 
M264.183960,427.583038 
	C261.686676,425.357391 259.330811,422.793213 255.471695,423.720245 
	C257.531311,425.796448 259.684845,427.694824 262.177002,428.882843 
	C265.897522,430.656342 266.719116,433.176819 265.714600,436.969788 
	C265.171539,439.020447 264.335724,441.414948 266.588745,443.610779 
	C270.232025,440.566193 268.082062,436.653290 268.620239,433.320679 
	C269.095184,430.379852 267.810730,428.524780 264.183960,427.583038 
M270.886566,693.457947 
	C268.703125,695.191711 266.291626,696.744690 265.971008,700.080139 
	C272.335999,696.206909 277.957367,691.487183 283.564728,686.203735 
	C281.593109,685.112732 280.277191,684.508911 278.336792,684.828857 
	C279.444946,690.427185 273.607635,690.024353 270.886566,693.457947 
M500.905975,750.428833 
	C502.094269,748.649475 503.821228,746.676025 501.475372,744.838135 
	C499.519257,743.305481 497.378235,744.178284 495.734161,745.884583 
	C494.092834,747.587952 493.302917,749.696472 494.935394,751.640503 
	C496.832855,753.900024 498.743622,752.540710 500.905975,750.428833 
M480.117615,220.433334 
	C481.498535,222.539185 483.132874,223.628357 485.256134,221.395721 
	C486.575378,220.008575 487.304718,218.296051 486.233093,216.452148 
	C485.345978,214.925690 483.836639,213.909531 482.092621,214.524323 
	C479.645508,215.386948 479.213165,217.435272 480.117615,220.433334 
M264.576447,499.821472 
	C264.401520,495.868713 265.312073,491.824158 263.922729,487.601501 
	C261.849854,490.010437 261.204742,500.024017 262.856384,501.533356 
	C264.222626,502.781860 264.327087,501.381683 264.576447,499.821472 
M435.624756,787.705688 
	C437.913422,785.411804 439.483582,782.944275 437.785767,779.251282 
	C434.644653,781.076355 434.076752,784.213501 432.846985,786.736694 
	C432.171448,788.122742 433.755707,788.517944 435.624756,787.705688 
M219.268143,467.043365 
	C218.369247,467.896393 217.874969,468.843842 218.629181,470.250488 
	C221.840332,469.228668 225.052322,468.206604 229.524719,466.783417 
	C225.356613,466.293060 222.603989,466.103729 219.268143,467.043365 
M243.490845,502.414551 
	C241.929794,502.713348 242.674973,505.498505 240.193329,505.128235 
	C239.615402,503.924347 238.959900,502.558807 238.159180,500.890808 
	C238.371780,503.487885 238.407379,505.773376 239.704926,507.782196 
	C244.680405,505.572205 244.856735,505.346924 243.490845,502.414551 
M443.557129,788.895691 
	C443.557129,784.334839 443.557129,779.773926 443.557129,775.213074 
	C443.578430,779.729736 441.539886,784.181030 443.557129,788.895691 
M261.515411,479.352844 
	C261.358368,477.732056 260.857819,476.508362 258.615295,477.029877 
	C258.177460,479.220612 259.129242,480.817535 260.749939,482.798126 
	C261.094208,481.474976 261.292480,480.712921 261.515411,479.352844 
z"/>
<path fill="#000000" opacity="1.000000" stroke="none" 
	d="
M786.644592,594.314514 
	C782.098267,596.789124 779.282349,600.873596 777.513855,605.447266 
	C776.418396,608.280212 782.061646,615.695984 785.301636,616.657471 
	C789.228577,617.822815 793.904602,615.112061 796.057068,610.779175 
	C798.942749,604.970276 803.162048,599.566223 804.768066,593.452271 
	C806.352539,587.420654 807.227356,580.810547 803.709045,574.373169 
	C801.694946,570.687988 799.530945,567.922180 796.185730,565.373596 
	C791.053040,561.463318 786.097412,561.893616 779.911377,564.338806 
	C771.943542,567.488220 769.873047,574.344604 766.384766,580.546387 
	C765.422852,582.256592 764.385803,583.809814 762.240845,585.239868 
	C760.413452,581.983032 759.665588,579.507446 762.355164,576.343933 
	C765.644775,572.474915 769.100281,568.788513 772.535522,565.062927 
	C774.214905,563.241699 774.521301,560.990356 771.976196,559.113159 
	C770.202454,557.804871 768.700623,556.127991 767.321167,554.842896 
	C767.267517,553.041321 768.482910,553.017090 769.236755,552.446350 
	C774.096375,548.767090 778.123657,544.710449 776.721313,537.722961 
	C776.271301,535.480591 776.678406,533.071411 776.643433,530.739258 
	C776.569031,525.782288 775.748352,520.470886 782.886169,519.216187 
	C783.282227,522.259277 784.559875,525.658325 781.010010,528.319397 
	C780.669678,528.574524 780.393188,529.232178 780.450439,529.653564 
	C781.636536,538.381836 778.249390,546.540833 777.348450,555.003845 
	C776.984680,558.420532 778.634644,559.841797 782.036438,559.759583 
	C787.531921,559.626831 793.032471,559.712097 798.530334,559.654114 
	C800.152344,559.637024 801.996155,559.815002 802.274414,557.421082 
	C801.275452,555.668518 799.933655,556.653748 798.783508,557.018433 
	C796.554504,557.725037 794.351257,558.310120 791.967285,558.373718 
	C780.787964,558.671814 779.523987,557.415283 781.039856,546.717773 
	C782.478516,536.565063 784.040649,526.429871 785.604614,515.909729 
	C780.481567,515.963135 777.451843,518.499634 775.586182,522.427368 
	C772.839600,528.209778 772.231995,534.131226 774.762390,540.292542 
	C777.330017,546.544739 770.885132,546.650208 768.131958,548.896851 
	C765.125244,551.350464 763.375916,548.338196 762.137817,545.934814 
	C754.457520,531.025879 761.884644,502.232086 784.154358,498.842224 
	C803.246277,495.936127 818.491516,508.742828 818.158386,529.613220 
	C818.025757,537.918518 814.812439,545.127380 808.794556,551.033752 
	C807.709717,552.098572 805.876587,552.852417 806.098389,554.929749 
	C810.662659,554.209473 817.760376,544.816406 818.765625,539.715088 
	C820.558350,530.616699 822.411499,520.820557 817.275574,513.185181 
	C812.726379,506.422333 808.070557,497.529694 797.160217,497.735748 
	C800.350037,495.986084 803.341309,494.814636 806.909729,494.565399 
	C811.331238,494.256500 815.857544,493.720459 819.285156,489.964233 
	C822.019531,486.967529 827.494995,488.518494 829.731628,491.855133 
	C832.483704,495.960724 833.565369,500.161316 833.152466,505.027374 
	C832.907410,507.915131 834.380188,509.779297 837.662659,509.599548 
	C842.572998,509.330658 844.790222,512.605408 846.277771,516.522583 
	C848.886841,523.392883 848.182556,530.292969 845.914124,537.084900 
	C844.437256,541.506836 842.719421,545.848267 841.107361,550.224976 
	C840.108948,552.935608 839.578247,555.789612 840.171570,558.581726 
	C842.806763,570.981995 842.599304,583.665222 844.119751,596.171326 
	C844.360107,598.148865 844.589172,600.198364 845.289490,602.037109 
	C848.232239,609.764038 847.300781,617.509277 845.291626,625.138916 
	C844.231262,629.165405 843.988098,632.958008 845.185425,636.907959 
	C847.280396,643.818787 845.297363,649.271179 839.414978,653.496338 
	C835.905212,656.017334 832.591064,658.817505 829.261475,661.579468 
	C827.730164,662.849731 825.815796,664.069275 825.027039,665.756714 
	C820.019531,676.470154 813.508789,686.630737 813.010315,699.037476 
	C812.780212,704.762085 814.742676,709.350830 818.269897,713.651306 
	C827.370117,724.746338 828.833679,745.467285 821.658936,757.780884 
	C820.166931,760.341675 817.639404,761.727051 815.757690,763.819397 
	C807.507202,772.992920 796.861023,778.753479 786.378357,784.868591 
	C773.597534,792.324341 760.462158,799.248596 748.640015,808.262756 
	C747.582764,809.068970 746.383484,809.825195 745.634521,810.878052 
	C738.576843,820.799072 728.514526,826.984314 718.367615,833.105042 
	C714.619324,835.366150 711.504578,838.411865 709.010864,842.002869 
	C704.199463,848.931458 697.234741,852.709595 689.519775,855.226257 
	C682.634338,857.472168 678.374451,853.339661 679.920288,846.235291 
	C681.425171,839.319092 680.152405,836.559937 673.503601,833.865967 
	C669.662537,832.309570 665.617188,831.189209 661.584961,830.190369 
	C656.908691,829.032043 653.355469,826.743042 651.545959,822.103577 
	C650.414368,819.202148 648.470642,817.084351 645.570312,815.713623 
	C640.765076,813.442566 637.751038,809.729492 636.756897,804.353882 
	C635.718079,798.736084 632.588745,794.656311 627.178955,792.449280 
	C624.438660,791.331360 622.464478,789.331543 621.249390,786.643921 
	C618.839783,781.313965 614.598450,778.980835 608.906921,779.061279 
	C605.343018,779.111694 601.865173,778.543518 598.742493,776.916138 
	C594.843323,774.884094 592.115601,775.238281 590.651672,779.746643 
	C590.444641,780.384277 590.109436,780.980225 589.431458,782.492249 
	C584.653992,772.911926 585.101868,763.957581 583.499207,753.967896 
	C589.032715,760.527466 591.048645,768.078979 597.606018,771.861328 
	C601.450928,774.079285 605.298645,776.695557 609.911499,776.802307 
	C616.949646,776.965271 624.179932,777.646484 630.553711,773.622986 
	C636.668152,769.763123 641.718689,765.003601 645.788574,758.748413 
	C651.155518,750.499878 647.005188,741.611938 649.136353,733.122009 
	C650.137146,732.606812 651.232666,732.703857 651.964478,733.793091 
	C655.794800,739.494202 660.661926,743.486145 667.644165,744.982605 
	C670.294006,745.550598 672.099792,748.592896 675.676392,747.277588 
	C682.574280,744.740479 689.758606,743.120483 694.362793,736.394287 
	C696.642822,733.063599 699.358337,730.290100 704.084290,728.975769 
	C707.022095,728.158752 710.864319,726.014893 713.573486,723.091431 
	C716.781555,719.629578 716.485168,716.249207 714.244263,712.941284 
	C712.404785,710.225891 710.003967,708.307373 708.835999,704.689880 
	C707.677185,701.100952 704.048218,697.992676 701.515869,694.672485 
	C698.035645,690.109680 694.745361,685.439758 691.533813,680.699646 
	C691.048279,679.983093 690.778870,679.105347 691.570190,678.461670 
	C692.493286,677.710876 693.253479,678.072327 694.122375,678.877441 
	C696.315063,680.909058 698.550476,682.923340 700.954102,684.692993 
	C707.749817,689.696289 713.197876,696.412781 721.074097,700.103943 
	C722.898865,700.959106 724.487061,703.102295 725.831909,704.724487 
	C727.809021,707.109375 729.833679,706.826660 732.037903,706.390076 
	C734.856628,705.831970 734.671326,703.371826 734.916687,700.641968 
	C735.197754,699.959717 735.318848,699.837891 735.440002,699.716064 
	C738.576782,698.938293 741.146667,697.076416 741.512634,693.926331 
	C741.861389,690.923889 743.964172,688.821899 745.728333,688.320190 
	C753.841797,686.013062 756.658203,678.602112 759.998718,672.674805 
	C762.287903,668.613159 760.600281,662.303406 760.667908,656.998230 
	C760.768982,649.074463 756.991943,643.094604 751.324341,637.953491 
	C750.079834,636.824585 748.933533,636.536926 747.373840,636.454468 
	C744.692444,636.312744 746.427490,634.761719 746.725769,633.453247 
	C746.763062,633.196777 747.001404,632.962524 747.118042,632.839600 
	C749.981934,632.725586 752.007690,633.280457 754.534241,635.323486 
	C758.432861,638.475830 763.137268,641.228882 768.205139,642.627197 
	C769.887756,643.091431 770.388245,644.591797 771.698608,645.251587 
	C775.220215,647.024841 779.695801,645.324646 781.773682,641.393433 
	C783.348022,642.074890 783.407593,643.623474 783.176453,644.803650 
	C781.840393,651.626404 787.146423,654.231079 791.185852,657.584595 
	C791.993652,658.255249 793.435669,658.723022 794.426025,658.517456 
	C799.159363,657.534607 804.131165,654.920654 805.095642,650.721436 
	C806.186584,645.971497 808.184937,639.968750 803.126648,635.429077 
	C799.697449,632.351501 792.576843,632.381226 789.227783,635.642578 
	C788.826172,636.033691 788.044861,636.034851 787.537842,636.187256 
	C787.139771,635.812805 786.671936,635.535278 786.709839,635.385010 
	C789.246582,625.301575 780.250244,623.468933 774.761230,620.868286 
	C768.869324,618.076843 764.262878,613.492798 757.923950,611.473816 
	C761.878052,607.495728 767.526978,607.924927 771.170105,604.400208 
	C773.575867,602.072754 775.380920,599.503235 777.179688,596.627136 
	C779.412842,593.056335 781.248169,589.021545 784.114014,585.829956 
	C785.572388,584.205872 786.862732,585.161011 787.112000,587.071716 
	C787.347717,588.878662 787.258545,590.728027 787.138428,593.204956 
	C786.857910,594.005615 786.751221,594.160034 786.644592,594.314514 
M797.623047,540.815369 
	C803.347290,537.224915 805.816711,532.405579 804.631104,526.260559 
	C803.816772,522.039368 801.661987,518.726868 796.620667,517.676147 
	C794.787354,525.653687 793.322205,533.358398 792.993103,541.109131 
	C794.630859,542.113770 795.834656,541.718750 796.988770,541.007446 
	C796.988770,541.007446 796.964478,541.024475 797.623047,540.815369 
z"/>
<path fill="#000000" opacity="1.000000" stroke="none" 
	d="
M429.860626,752.837097 
	C434.461121,746.935242 438.825958,741.301270 443.179535,735.658752 
	C445.195374,733.046082 446.018982,728.881592 450.742462,729.797485 
	C457.742004,731.154785 462.024994,734.711670 462.795288,740.028931 
	C463.127502,742.322083 463.082001,744.677185 463.110565,747.005371 
	C463.151367,750.335327 463.447388,753.540466 464.455078,756.813721 
	C466.533447,763.564697 463.581482,769.942139 461.753082,776.223572 
	C460.947113,778.992371 457.345642,780.004456 454.562439,779.594910 
	C451.691193,779.172302 449.403137,776.893372 449.130524,773.855286 
	C448.704987,769.112793 447.764069,764.283691 450.184052,759.650452 
	C451.381317,757.358215 450.861908,755.179199 448.109283,753.462158 
	C438.792206,765.773865 429.631836,777.969116 420.341370,790.064453 
	C418.815247,792.051392 417.813629,795.587341 414.620361,794.872253 
	C410.137085,793.868164 405.455688,792.887756 401.614777,790.169373 
	C400.047180,789.059937 400.750824,786.732239 400.784546,784.937622 
	C401.034790,771.626648 401.340149,758.316711 401.612183,745.006165 
	C401.655426,742.889709 401.618256,740.771667 401.618256,737.319397 
	C393.907349,747.600830 386.968781,756.836914 380.049103,766.087036 
	C377.358215,769.684082 374.585846,773.229614 372.083801,776.955261 
	C370.258331,779.673401 368.197357,780.108948 365.315704,778.832581 
	C362.889160,777.757874 360.333557,776.959534 357.802399,776.139771 
	C354.721100,775.141724 354.351959,773.626831 356.304688,771.020264 
	C367.855408,755.602295 379.321228,740.120605 390.819519,724.663269 
	C391.316071,723.995667 391.866425,723.368164 392.365234,722.702087 
	C399.787750,712.791565 399.737579,712.947937 411.519287,716.629578 
	C415.727020,717.944458 417.424225,720.164429 417.348541,724.521301 
	C417.128693,737.172241 417.160370,749.827515 417.100586,762.481140 
	C417.092865,764.114807 416.781464,765.787537 417.933411,767.960205 
	C421.953827,762.848694 425.787109,757.975098 429.860626,752.837097 
M452.593872,739.154846 
	C452.624054,737.080261 451.452454,735.542236 449.658630,736.729553 
	C447.179962,738.370239 449.664154,740.328430 449.857208,742.362671 
	C451.550629,741.888977 451.985260,740.827454 452.593872,739.154846 
z"/>
<path fill="#000000" opacity="1.000000" stroke="none" 
	d="
M734.900146,700.269287 
	C731.338379,704.760498 728.321472,704.519653 724.187439,700.796692 
	C714.048035,691.665588 703.360596,683.146606 693.044250,674.207642 
	C679.549316,662.514343 677.953857,648.907654 688.765015,634.575134 
	C694.596802,626.843811 702.135864,620.821960 710.705261,616.156555 
	C713.667297,614.543945 715.388489,615.242188 716.243835,618.423157 
	C716.330261,618.744629 716.411804,619.069885 716.532166,619.379272 
	C719.517517,627.049622 719.459778,626.941467 712.378906,630.789490 
	C705.953430,634.281311 700.590149,638.873474 698.169800,646.148315 
	C696.282349,651.821411 697.798462,656.085815 703.587769,660.064697 
	C705.203247,649.272339 711.401367,641.845093 720.475281,636.727783 
	C726.260803,633.465088 732.575623,633.366089 738.944885,634.620178 
	C749.847046,636.766846 759.416626,648.501648 759.735657,660.338684 
	C760.057251,672.271301 751.769653,686.128906 736.721924,689.085449 
	C742.625854,693.355286 737.187744,695.919983 735.510376,699.423828 
	C735.318848,699.837891 735.197754,699.959717 734.900146,700.269287 
M716.301086,668.997070 
	C719.276733,676.486511 726.466003,680.401123 732.795410,677.978394 
	C740.544739,675.012207 745.037415,666.790527 742.825317,659.623779 
	C740.724426,652.817444 733.745056,648.906738 727.145874,650.838257 
	C719.161316,653.175110 714.393616,660.831055 716.301086,668.997070 
z"/>
<path fill="#000000" opacity="1.000000" stroke="none" 
	d="
M320.856232,247.268951 
	C321.119385,239.770020 329.156036,235.015732 335.146881,238.828674 
	C336.064667,233.879730 339.605621,231.286057 343.613281,229.060089 
	C347.634003,226.826843 349.666656,222.231094 354.650665,220.848419 
	C374.079224,215.458527 388.852142,233.136917 390.409821,247.361816 
	C391.933563,261.276947 380.897980,277.644745 361.086548,277.831360 
	C364.848846,283.574371 368.189362,289.002106 371.880951,294.179535 
	C373.937347,297.063629 374.136139,298.767212 370.821869,300.972168 
	C360.978424,307.520844 361.202118,307.573608 354.456207,297.844177 
	C342.986572,281.301910 331.550537,264.742004 320.856232,247.268951 
M373.760559,252.337830 
	C374.071411,242.571548 364.272552,233.221039 355.336243,235.674713 
	C348.559570,237.535370 344.042603,244.067398 344.898682,250.714996 
	C345.881500,258.346649 352.333099,264.813324 359.147430,264.997009 
	C367.327576,265.217499 372.228577,261.237396 373.760559,252.337830 
M363.196869,292.362701 
	C361.707947,290.848267 359.941833,290.430786 358.348297,291.894501 
	C356.753174,293.359650 358.358124,294.533936 359.159882,295.724335 
	C359.525787,296.267639 359.849823,296.865936 360.055420,297.484924 
	C360.513611,298.864319 360.567352,300.795166 362.761169,300.136383 
	C364.531311,299.604828 364.602966,297.968781 364.327362,296.402588 
	C364.126556,295.261261 363.831909,294.136444 363.196869,292.362701 
z"/>
<path fill="#000000" opacity="1.000000" stroke="none" 
	d="
M247.026215,405.006836 
	C234.924728,400.516144 226.380859,392.836273 225.325089,379.205170 
	C224.457993,368.009979 228.540924,358.574188 237.445358,351.672302 
	C246.374405,344.751343 256.196259,343.943237 266.542969,348.531738 
	C269.594177,349.884857 270.277771,351.276917 268.787231,354.602936 
	C264.443268,364.296234 260.572998,374.202393 256.555023,384.040558 
	C256.005646,385.385712 254.943329,386.623688 255.474777,388.554443 
	C259.906738,389.461945 263.577332,387.838593 266.334778,384.461090 
	C270.252625,379.662231 272.592926,374.069244 271.364685,367.813141 
	C270.597626,363.906067 271.691376,362.838348 279.493927,360.738068 
	C283.729980,359.597839 284.139557,362.680786 284.718262,365.509369 
	C287.964752,381.377045 276.662903,400.663208 261.775391,404.693848 
	C257.185425,405.936523 252.532089,405.365112 247.433777,405.080078 
	C246.975342,404.968719 247.007492,404.996643 247.026215,405.006836 
M239.280670,370.773834 
	C237.762131,377.445251 239.199097,381.273071 244.282532,384.098022 
	C247.815430,378.730560 253.368988,365.290070 253.567322,361.627380 
	C246.568314,360.306763 243.370850,362.210114 239.280670,370.773834 
z"/>
<path fill="#000000" opacity="1.000000" stroke="none" 
	d="
M712.798828,715.133179 
	C714.825745,717.275208 715.223938,719.094421 712.820740,720.819519 
	C710.120117,722.758179 707.427307,724.707825 704.731506,726.653137 
	C702.258240,728.437927 700.802307,726.432495 698.950623,724.535095 
	C695.934814,732.744751 690.802673,738.487732 683.444641,742.405457 
	C674.211060,747.321838 665.232727,744.959778 659.175171,738.601318 
	C650.130005,729.106995 643.586609,717.580078 635.778931,707.024048 
	C636.561829,706.119446 636.904297,705.516968 637.417664,705.160583 
	C651.713074,695.236389 647.829163,695.640625 657.791504,708.664856 
	C661.026001,712.893555 663.883301,717.411926 667.140015,721.622192 
	C671.630005,727.426636 677.282288,728.645325 682.350708,725.182129 
	C688.775757,720.791992 690.602173,714.779053 686.601379,708.390198 
	C681.663818,700.505249 676.099548,693.012817 670.816528,685.343689 
	C670.361877,684.683716 669.985168,683.970093 669.471619,683.113586 
	C673.228760,679.031616 677.542664,676.092590 682.831787,673.469604 
	C692.819519,687.372681 702.695923,701.120789 712.798828,715.133179 
z"/>
<path fill="#000000" opacity="1.000000" stroke="none" 
	d="
M395.514648,241.467316 
	C385.708038,229.400970 385.105408,215.422119 393.660919,203.971588 
	C401.682068,193.236267 418.385406,189.047638 430.989532,194.671844 
	C438.813995,198.163239 443.167969,204.694550 446.117767,212.367508 
	C447.267212,215.357468 445.429138,216.480057 442.952271,217.384613 
	C432.960266,221.033707 422.999725,224.769638 413.046509,228.523804 
	C411.395447,229.146545 409.454224,229.268829 408.274353,230.864853 
	C414.291138,239.924118 427.250488,237.063538 433.951050,229.187363 
	C436.572784,226.105637 438.590576,225.875992 441.916626,227.730637 
	C448.765961,231.549911 449.112823,232.072845 444.346497,238.284805 
	C440.470856,243.335983 434.979370,246.784821 428.988922,247.855957 
	C422.215576,249.067078 415.108673,248.703247 408.158356,248.538193 
	C403.048401,248.416809 399.257568,245.174377 395.514648,241.467316 
M411.633881,218.032623 
	C416.980560,216.036377 422.535248,214.517654 427.549011,211.634781 
	C424.226379,205.697433 418.290161,203.837387 412.105377,206.441254 
	C405.455536,209.240906 402.498138,214.401138 404.343445,220.271805 
	C406.526886,219.611343 408.714966,218.949478 411.633881,218.032623 
z"/>
<path fill="#000000" opacity="1.000000" stroke="none" 
	d="
M277.568542,287.864929 
	C278.749634,283.788910 280.880585,280.977966 284.278839,279.076843 
	C285.413696,278.441956 286.793304,277.621246 287.274902,276.536499 
	C293.426483,262.680084 315.369385,262.223480 325.719940,271.629486 
	C334.806396,279.886658 337.951233,289.898560 335.043243,301.374878 
	C332.117249,312.922241 324.245361,320.726044 313.003418,324.627411 
	C301.822906,328.507446 291.953247,325.628326 283.822662,317.262848 
	C275.787262,308.995361 273.704437,299.202850 277.568542,287.864929 
M299.208191,282.397919 
	C291.508392,287.409882 288.960846,294.621521 292.781372,300.888550 
	C297.386597,308.442719 305.948151,313.850067 314.576782,308.317200 
	C316.104706,307.337494 317.761902,305.707275 320.056213,307.054016 
	C320.744598,309.779968 317.835815,311.903351 318.711212,314.674835 
	C326.021454,311.437103 329.458771,305.247040 332.413757,298.381226 
	C334.868439,292.677795 334.513672,290.110657 329.365417,286.690430 
	C327.932312,285.738373 326.497681,284.705841 324.820770,285.835052 
	C323.076019,287.009888 322.853607,288.973846 323.347076,290.771942 
	C323.867157,292.666840 325.092712,294.367493 325.618591,296.261658 
	C326.185364,298.303070 325.250092,300.119446 323.091797,300.326141 
	C320.941315,300.532104 321.180145,298.494141 321.048248,297.054871 
	C319.994171,285.552277 310.958588,279.137634 299.208191,282.397919 
z"/>
<path fill="#000000" opacity="1.000000" stroke="none" 
	d="
M787.113770,593.612427 
	C789.164612,591.056885 789.601562,588.297668 789.641602,585.427063 
	C789.667603,583.560913 788.842773,582.174622 787.058655,581.578064 
	C785.409302,581.026611 784.057983,581.775208 783.178101,583.121826 
	C780.813965,586.740234 778.469543,590.376465 776.270203,594.096008 
	C774.556396,596.994507 772.565186,599.659485 770.078735,601.892029 
	C761.734802,609.384033 749.800476,606.448181 745.614014,595.971802 
	C743.961365,591.836243 743.344727,587.603455 744.330505,583.249878 
	C746.684448,572.854248 750.663940,563.315857 758.514343,555.686279 
	C760.814575,553.450806 762.518250,553.024231 764.639709,555.625671 
	C765.475952,556.651184 766.506897,557.527954 767.504089,558.410339 
	C770.091248,560.699707 770.462158,562.725037 767.678040,565.418701 
	C762.931580,570.011047 759.572021,575.582031 758.319397,582.164612 
	C757.838135,584.694031 756.945557,587.915344 760.242676,589.136108 
	C763.062317,590.179993 764.237854,587.338013 765.461853,585.475586 
	C768.382690,581.031555 770.857666,576.270813 774.020630,572.015503 
	C777.903137,566.792297 783.029785,563.509216 789.963196,565.152588 
	C797.392761,566.913635 801.996948,571.591858 802.828125,579.256775 
	C804.265991,592.516663 799.527832,603.703064 790.611816,613.307373 
	C788.998718,615.044922 787.207581,615.273804 785.420898,613.454407 
	C785.071289,613.098450 784.678711,612.785034 784.326172,612.431824 
	C778.789551,606.884766 778.835388,606.916809 783.490784,600.534424 
	C784.740967,598.820496 786.431519,597.290588 786.645996,594.639587 
	C786.751221,594.160034 786.857910,594.005615 787.113770,593.612427 
z"/>
<path fill="#000000" opacity="1.000000" stroke="none" 
	d="
M262.190094,314.784027 
	C274.782135,322.941986 287.039917,330.954773 299.368317,338.857391 
	C302.120270,340.621460 302.913422,342.276947 301.015076,345.351624 
	C299.055542,348.525299 299.374115,353.824036 295.575165,354.958191 
	C291.737854,356.103760 289.096832,351.616302 285.922485,349.647644 
	C269.234497,339.297668 252.596039,328.867004 236.000061,318.370056 
	C230.248993,314.732513 230.281479,314.381012 234.039978,308.714752 
	C239.689590,300.197357 239.691360,300.194580 248.477264,305.887482 
	C252.949310,308.785126 257.413544,311.694855 262.190094,314.784027 
M291.032440,344.857422 
	C291.226654,347.964661 292.912231,349.015778 295.679810,347.842041 
	C297.153442,347.217041 298.081940,345.665802 297.043274,344.129303 
	C295.193420,341.392761 293.177155,342.268677 291.032440,344.857422 
z"/>
<path fill="#000000" opacity="1.000000" stroke="none" 
	d="
M777.520874,625.378906 
	C784.368958,629.953552 784.355713,629.946472 780.528564,637.069763 
	C779.285095,639.384155 778.519226,641.996582 775.916016,644.046814 
	C764.641785,637.680603 753.255188,631.257324 741.875610,624.821594 
	C738.121094,622.698303 734.352600,620.596619 730.652405,618.381653 
	C728.392151,617.028748 727.515869,615.500000 729.216858,612.719299 
	C736.179565,601.336975 732.950134,599.965393 746.421082,607.782837 
	C756.617798,613.700195 766.945312,619.392273 777.520874,625.378906 
z"/>
<path fill="#000000" opacity="1.000000" stroke="none" 
	d="
M252.219116,556.152405 
	C251.302673,560.900146 255.237030,563.773560 256.407501,567.620605 
	C257.005432,569.585876 258.111298,571.390259 258.481262,573.578186 
	C259.753143,581.099548 259.364288,579.900085 252.581116,582.755859 
	C248.205841,584.597900 243.003311,583.719543 239.204987,587.378113 
	C237.612076,588.912415 234.807419,588.414734 231.850464,587.459351 
	C234.064102,583.661316 237.782486,582.080078 241.029236,580.334717 
	C244.811310,578.301697 245.293488,576.257874 242.939240,572.861267 
	C239.000381,567.178650 231.843567,565.426453 225.782349,568.685242 
	C223.519760,569.901794 223.036911,571.869385 222.742676,574.042969 
	C222.464188,576.100220 222.271301,578.169067 222.002319,580.576965 
	C216.915421,575.529602 216.743896,569.090271 220.925812,562.790344 
	C226.164032,554.899048 233.196854,551.159058 242.802216,552.634216 
	C245.811417,553.096375 247.360199,557.145386 251.364868,555.719055 
	C251.729202,555.687439 252.053833,555.999512 252.219116,556.152405 
z"/>
<path fill="#000000" opacity="1.000000" stroke="none" 
	d="
M314.711731,239.921646 
	C317.882843,236.740616 320.130615,232.404068 326.019836,234.659714 
	C323.217621,236.454041 320.665283,238.030380 318.338623,239.929977 
	C315.818359,241.987640 315.471985,244.337143 316.457367,246.471237 
	C318.352325,250.575211 320.960419,254.797592 323.989166,257.688812 
	C327.019318,260.581390 327.309021,263.924561 329.566650,266.858734 
	C326.882568,268.661163 325.180328,268.267029 322.825378,267.002686 
	C317.370331,264.073975 310.845825,259.721161 305.439453,262.238525 
	C300.629303,264.478271 294.811493,263.294708 290.837280,267.339752 
	C289.864136,268.330261 288.439606,268.378571 286.989105,267.209320 
	C286.999207,264.308807 289.526276,263.635315 291.491974,262.848938 
	C297.159576,260.581604 302.884399,258.430969 308.683624,256.530212 
	C311.545807,255.592102 312.132050,253.738724 311.956360,251.196823 
	C311.685394,247.277588 312.260132,243.560089 314.711731,239.921646 
z"/>
<path fill="#000000" opacity="1.000000" stroke="none" 
	d="
M564.030151,734.044861 
	C565.820068,730.033813 569.664246,730.002686 572.975586,730.214233 
	C575.829346,730.396545 575.650330,733.682739 576.067932,735.848816 
	C578.805115,750.044983 581.904419,764.181152 583.448425,778.584961 
	C583.587280,779.880188 584.327759,781.395508 582.620728,782.046143 
	C580.763306,782.754028 580.826843,780.664795 579.944946,779.943481 
	C574.460938,775.458557 575.328979,769.520691 575.903564,763.627441 
	C576.428711,758.241394 573.940674,753.535156 572.375488,748.679260 
	C571.302368,745.349854 569.860840,742.188293 569.833130,738.606018 
	C569.807007,735.232849 567.071350,734.875916 564.353638,734.072449 
	C564.001282,734.008301 564.030151,734.044861 564.030151,734.044861 
z"/>
<path fill="#000000" opacity="1.000000" stroke="none" 
	d="
M796.433960,654.957520 
	C789.723633,655.171570 786.296082,652.375671 785.462219,646.420166 
	C784.817932,641.818604 789.132141,636.275513 794.133179,635.261597 
	C798.342957,634.408081 800.326355,637.935425 802.848267,640.015503 
	C805.073486,641.850830 805.039612,644.918091 803.726501,647.374084 
	C802.108887,650.399292 800.383972,653.535156 796.433960,654.957520 
z"/>
<path fill="#000000" opacity="1.000000" stroke="none" 
	d="
M321.083130,325.914917 
	C321.653839,328.955200 318.175781,331.595276 321.148346,334.731598 
	C321.987915,335.617401 320.435272,337.263824 319.082825,337.560669 
	C313.921326,338.693542 310.259735,341.764557 306.938477,347.755402 
	C307.589813,339.477173 304.082275,336.446960 297.914307,334.572083 
	C294.705719,333.596741 292.312836,329.937988 289.644623,327.573883 
	C290.241089,325.773041 291.625336,325.444580 292.540527,326.075775 
	C300.318207,331.439850 308.073334,330.093048 315.986847,326.449402 
	C317.415161,325.791779 319.213470,325.937866 321.083130,325.914917 
z"/>
<path fill="#000000" opacity="1.000000" stroke="none" 
	d="
M563.985962,733.990845 
	C564.099854,735.295837 564.004272,736.688782 564.393250,737.929871 
	C568.151367,749.920532 568.174622,749.913269 564.377075,762.877014 
	C563.736511,754.887634 560.977844,747.332886 559.939026,739.446838 
	C559.627197,737.079285 559.030396,733.684631 563.722534,733.943481 
	C564.030151,734.044861 564.001282,734.008301 563.985962,733.990845 
z"/>
<path fill="#000000" opacity="1.000000" stroke="none" 
	d="
M263.437927,373.584625 
	C264.684814,372.451355 264.562592,371.254425 264.696625,370.100250 
	C264.854919,368.737549 264.300751,366.632172 266.646790,366.847687 
	C268.824249,367.047699 268.029083,369.105011 268.272064,370.459259 
	C269.561005,377.642731 266.538696,382.460358 260.060883,385.360077 
	C259.344513,383.688721 260.785553,378.209473 263.437927,373.584625 
z"/>
<path fill="#000000" opacity="1.000000" stroke="none" 
	d="
M341.984497,284.906860 
	C343.476196,287.217712 344.851868,289.250153 346.402649,291.541290 
	C344.147064,295.181976 337.664307,296.604919 340.441650,303.305206 
	C339.851837,303.162994 339.261993,303.020813 338.672180,302.878601 
	C338.672180,297.097870 338.565369,291.314362 338.717285,285.537628 
	C338.793030,282.657227 340.313629,283.208252 341.984497,284.906860 
z"/>
<path fill="#000000" opacity="1.000000" stroke="none" 
	d="
M423.720276,233.227661 
	C420.560760,233.050446 417.703094,233.786453 415.030396,232.263596 
	C417.839447,228.769333 425.042358,226.426483 431.023560,227.129669 
	C428.941498,229.696457 428.390717,233.357300 423.720276,233.227661 
z"/>
<path fill="#000000" opacity="1.000000" stroke="none" 
	d="
M335.948730,229.978333 
	C334.772247,231.847122 333.727600,233.896179 331.604279,232.171585 
	C329.549530,230.502731 331.730347,229.429688 332.737640,228.230515 
	C335.149567,225.359039 337.644684,222.616531 341.250244,220.550995 
	C343.702393,226.503296 337.658081,226.745483 335.948730,229.978333 
z"/>
<path fill="#000000" opacity="1.000000" stroke="none" 
	d="
M609.681335,734.809509 
	C612.361511,734.079224 614.577209,731.737427 617.262207,733.929932 
	C615.462341,737.918152 606.844421,741.716675 602.193787,740.411804 
	C604.101074,737.755554 606.544861,736.111145 609.681335,734.809509 
z"/>
<path fill="#000000" opacity="1.000000" stroke="none" 
	d="
M557.550415,774.645447 
	C559.864746,773.823303 560.841858,771.420532 563.183105,771.233337 
	C563.434021,777.307983 558.078918,780.869995 551.839111,778.612366 
	C553.022644,776.358643 555.693542,776.325256 557.550415,774.645447 
z"/>
<path fill="#000000" opacity="1.000000" stroke="none" 
	d="
M566.786987,782.792480 
	C565.276855,783.739807 564.044250,784.656128 562.293213,783.522583 
	C562.680298,780.890747 563.545410,778.552734 566.239502,777.378052 
	C567.210022,776.954895 568.346680,777.198303 568.888855,778.076111 
	C570.265930,780.305725 567.776611,781.107361 566.786987,782.792480 
z"/>
<path fill="#000000" opacity="1.000000" stroke="none" 
	d="
M758.906738,273.012909 
	C763.088684,275.534027 765.526428,279.431763 768.836121,282.445343 
	C770.053955,283.554230 770.590149,285.028656 769.125183,286.344208 
	C756.184570,297.965881 745.049011,311.660095 730.015137,320.868408 
	C724.473267,324.262878 715.236877,324.117035 709.022888,320.915009 
	C712.023560,319.271759 715.134277,319.855347 717.892029,319.055176 
	C721.509277,318.005615 723.018127,316.582001 719.839478,313.329529 
	C717.618835,311.057312 717.052917,308.674438 720.165710,306.748810 
	C732.763062,298.955933 742.333130,287.809906 752.722107,277.565277 
	C754.483154,275.828674 756.116760,273.889069 758.906738,273.012909 
z"/>
<path fill="#000000" opacity="1.000000" stroke="none" 
	d="
M722.556519,238.719635 
	C724.363831,236.921432 725.847107,237.433929 727.144775,238.769180 
	C729.808777,241.510406 732.410278,244.313156 735.008423,247.117447 
	C737.184998,249.466721 735.418152,251.043900 733.817810,252.548218 
	C725.588684,260.283966 717.453979,268.126587 709.041260,275.658234 
	C703.885925,280.273651 700.506531,286.042145 697.126892,293.156281 
	C695.009888,287.770325 692.775085,284.523773 687.081238,284.952515 
	C684.032898,285.182098 684.180542,281.773041 685.258118,279.549835 
	C687.873413,274.154327 690.964844,269.021362 695.323792,264.812347 
	C704.285583,256.158875 713.300598,247.560486 722.556519,238.719635 
z"/>
<path fill="#000000" opacity="1.000000" stroke="none" 
	d="
M578.496948,179.481873 
	C575.754395,190.000626 572.914612,200.077362 570.504639,210.255859 
	C569.067261,216.326630 570.185669,222.308594 575.657104,225.869949 
	C581.199646,229.477570 587.444946,231.382568 593.990540,227.563904 
	C595.926758,226.434265 597.436340,225.082260 598.499878,223.076828 
	C599.489014,221.211716 600.795227,219.514709 601.822144,217.955688 
	C602.671326,218.049530 603.000244,218.060364 603.318298,218.125061 
	C605.867859,218.643814 607.855774,223.033798 610.072266,221.054260 
	C613.417053,218.067032 616.859680,214.085831 616.787170,209.258331 
	C616.722412,204.946030 617.711243,201.063583 618.840088,197.083817 
	C619.021790,196.443329 619.271423,195.806961 619.342041,195.152771 
	C619.631287,192.470032 619.123352,189.765625 616.338196,188.988403 
	C612.955811,188.044479 613.055054,191.480972 612.166382,193.393341 
	C611.695679,194.406219 611.751587,195.664017 611.570740,196.811417 
	C611.148438,199.490814 609.519958,200.777435 606.345154,201.170807 
	C607.572571,193.121002 610.050903,185.779709 612.362915,178.415634 
	C612.988403,176.423309 614.889282,175.884903 616.916382,176.420135 
	C620.125427,177.267410 623.353455,178.061935 626.515442,179.062347 
	C629.140442,179.892914 628.819214,182.101074 628.265808,184.055786 
	C625.684814,193.171722 623.162231,202.309570 620.301025,211.338898 
	C618.449280,217.182587 617.731995,223.329147 614.819214,228.909088 
	C609.128906,239.809921 600.009827,245.219009 588.113464,244.775192 
	C576.919067,244.357559 566.438049,241.024643 559.034302,231.650436 
	C552.382629,223.228363 551.260925,213.914001 554.761658,203.882828 
	C555.415161,202.010132 555.878540,200.050232 556.218140,198.093857 
	C556.704834,195.290894 557.520447,192.861542 561.084656,192.553207 
	C557.146240,182.451767 562.406250,173.819138 564.528442,164.775299 
	C564.875305,163.296951 566.193665,162.782104 567.714111,163.135513 
	C568.524597,163.323898 569.337158,163.516525 570.129150,163.769058 
	C582.944031,167.855118 582.978027,164.546265 578.496948,179.481873 
M561.616516,203.128265 
	C567.745422,201.572708 569.932373,196.302948 568.136841,187.416412 
	C561.657166,191.407013 559.134888,196.858093 561.616516,203.128265 
z"/>
<path fill="#000000" opacity="1.000000" stroke="none" 
	d="
M645.287842,202.219849 
	C650.786011,187.866959 651.547241,191.168945 663.005005,196.588638 
	C665.429810,197.735611 665.892090,199.386337 664.636353,201.858749 
	C654.695374,221.430038 644.798950,241.024185 634.979187,260.656525 
	C633.583496,263.446838 632.030212,263.830688 629.486389,262.198975 
	C627.393616,260.856598 625.217224,259.500946 622.889099,258.699799 
	C618.427307,257.164368 617.940918,254.978577 620.130859,250.855545 
	C628.633789,234.847412 636.826172,218.674286 645.287842,202.219849 
z"/>
<path fill="#000000" opacity="1.000000" stroke="none" 
	d="
M358.009155,734.984009 
	C349.863129,738.077515 341.828308,739.026489 333.309174,735.599304 
	C314.293488,727.949585 307.921509,707.274841 319.563721,690.491760 
	C322.034882,686.929382 324.053528,687.002930 327.214478,689.440979 
	C336.663544,696.729126 346.268707,703.814758 356.084747,711.183594 
	C358.416534,707.760925 358.098907,704.561584 356.505585,701.558838 
	C353.013000,694.976746 347.685974,690.916504 340.027679,690.245850 
	C336.043304,689.896973 334.390869,686.138123 335.092133,679.652649 
	C335.504272,675.841248 338.318756,675.820740 340.996307,676.000244 
	C356.213135,677.020203 374.852417,692.567139 373.389679,710.990295 
	C372.544708,721.632629 366.410858,728.601624 358.168335,734.765137 
	C357.954681,735.024292 357.992249,734.999023 358.009155,734.984009 
M328.566467,713.637268 
	C332.203461,723.983826 344.977448,726.514893 349.623749,719.584656 
	C343.148071,714.680908 336.643402,709.755249 330.125610,704.819580 
	C327.660461,707.566589 328.300537,710.267883 328.566467,713.637268 
z"/>
<path fill="#000000" opacity="1.000000" stroke="none" 
	d="
M354.148254,702.947998 
	C353.884796,705.233398 353.282867,706.916504 351.118195,705.118835 
	C347.081329,701.766357 343.212891,698.211060 339.214691,694.687561 
	C343.514282,693.405090 351.348114,697.591858 354.148254,702.947998 
z"/>
<path fill="#000000" opacity="1.000000" stroke="none" 
	d="
M470.989014,207.909882 
	C472.176086,215.906494 473.059479,223.508484 474.608459,230.972336 
	C475.412781,234.848038 474.223083,236.140533 470.654968,236.496582 
	C467.047272,236.856598 463.466339,237.484497 459.726257,238.016006 
	C457.086609,232.058533 457.106903,225.823471 455.968567,219.871185 
	C454.100677,210.104477 452.702881,200.244965 451.251312,190.403275 
	C450.786011,187.248489 449.459686,183.508118 453.969238,181.962448 
	C461.065613,179.530212 464.903046,180.440750 467.582153,185.267197 
	C471.042084,182.115463 474.652405,179.283310 479.008087,177.542984 
	C482.726105,176.057434 485.173828,176.477921 485.594635,181.024155 
	C485.655487,181.682007 485.866852,182.324554 485.979370,182.979202 
	C487.284790,190.574432 487.283264,190.574692 480.007233,193.245331 
	C473.107635,195.777771 471.108887,198.918182 470.989014,207.909882 
M459.848602,215.030243 
	C462.140869,215.542053 463.312958,214.408005 463.492737,212.279999 
	C463.587189,211.161407 462.648315,210.360031 461.573700,210.508621 
	C459.156067,210.842926 458.891327,212.531021 459.848602,215.030243 
z"/>
<path fill="#000000" opacity="1.000000" stroke="none" 
	d="
M509.131592,214.338623 
	C514.445862,216.938065 515.737244,221.261520 515.003784,226.210388 
	C513.922668,233.504501 510.722717,240.171631 507.807251,246.835556 
	C506.126343,250.677582 501.975220,249.733139 498.954559,248.817291 
	C495.993469,247.919495 497.710632,245.169403 498.180756,243.246735 
	C499.459259,238.018112 501.296173,233.132248 496.389832,228.250092 
	C493.717743,225.591187 494.407867,221.323792 496.792084,218.054901 
	C499.802795,213.927124 503.951355,212.962677 509.131592,214.338623 
M501.378967,221.728470 
	C499.984222,223.410675 499.878754,225.084442 502.013123,226.048370 
	C503.250824,226.607330 504.143921,225.431946 504.441864,224.282288 
	C504.968353,222.250931 504.223785,221.125534 501.378967,221.728470 
z"/>
<path fill="#000000" opacity="1.000000" stroke="none" 
	d="
M302.996460,648.995422 
	C302.264069,650.545349 302.653595,651.898193 303.805389,653.057129 
	C307.185730,656.458313 307.368744,660.887329 305.593750,664.539368 
	C302.830444,670.224915 296.198975,672.326355 290.554108,671.896729 
	C284.706451,671.451538 283.837616,666.371460 280.924500,663.218567 
	C280.347748,662.594360 280.360382,660.370422 280.920807,659.932068 
	C283.429291,657.970093 284.360901,655.028076 285.965790,652.549011 
	C290.217468,645.981628 296.584412,649.460144 302.548340,648.926636 
	C303.010254,649.011902 303.000580,649.000793 302.996460,648.995422 
z"/>
<path fill="#000000" opacity="1.000000" stroke="none" 
	d="
M625.396484,753.801392 
	C621.679749,759.369202 616.829346,756.893066 612.232727,756.363220 
	C615.354980,754.624695 618.649475,753.453735 621.513123,751.296326 
	C622.544922,750.518982 626.575806,748.552917 625.396484,753.801392 
z"/>
<path fill="#000000" opacity="1.000000" stroke="none" 
	d="
M797.000244,540.999878 
	C796.465027,540.623413 795.872986,540.303101 795.397095,539.858582 
	C795.237305,539.709351 795.257202,539.181763 795.390869,538.931946 
	C798.030151,533.998840 795.519287,528.373718 797.323547,523.317810 
	C802.653503,524.589050 804.364014,530.786560 800.649048,535.165039 
	C799.248352,536.815918 797.652954,538.274109 797.072571,540.762939 
	C796.964478,541.024475 796.988770,541.007446 797.000244,540.999878 
z"/>
<path fill="#000000" opacity="1.000000" stroke="none" 
	d="
M719.841919,670.101624 
	C716.823425,667.206787 719.008789,664.510620 719.644958,661.983093 
	C721.047363,656.410645 727.882812,651.828125 732.884216,652.817688 
	C737.087280,653.649353 743.135010,661.815308 741.168579,666.009888 
	C739.313599,669.966980 736.049072,674.174866 730.973938,675.407959 
	C727.277161,676.306030 723.812866,676.271362 721.868530,672.066956 
	C721.550232,671.378723 720.675781,670.947754 719.841919,670.101624 
z"/>
<path fill="#000000" opacity="1.000000" stroke="none" 
	d="
M351.200958,257.696747 
	C349.634125,254.620239 347.730988,252.296158 347.594666,248.795639 
	C347.401215,243.827805 350.677429,241.455795 353.903625,239.584015 
	C356.427582,238.119690 359.805939,237.869308 362.395721,241.064529 
	C363.503235,242.431000 366.112946,242.465912 367.643738,243.627975 
	C370.511444,245.804916 371.589172,254.323761 369.691467,257.517944 
	C367.555206,261.113708 360.439270,263.191681 356.364105,261.240021 
	C354.591583,260.391113 353.022675,259.117126 351.200958,257.696747 
M357.719299,245.723236 
	C358.688232,246.959076 359.789520,248.189545 361.075439,246.220779 
	C361.916138,244.933685 361.313995,243.535141 359.994965,242.972748 
	C357.997375,242.120987 357.396301,243.352356 357.719299,245.723236 
z"/>
<path fill="#000000" opacity="1.000000" stroke="none" 
	d="
M244.901398,378.777588 
	C242.460449,378.139282 241.535324,376.987549 242.226868,374.167877 
	C243.035172,370.872253 242.407120,367.114563 246.480927,365.535889 
	C247.253494,365.236481 248.335297,365.193604 248.697144,366.069641 
	C249.541138,368.112976 250.085022,370.708008 248.338806,372.105927 
	C246.102081,373.896423 245.606415,376.112274 244.901398,378.777588 
z"/>
<path fill="#000000" opacity="1.000000" stroke="none" 
	d="
M411.508667,216.152252 
	C409.378845,217.462585 407.584320,217.903320 406.176758,215.584808 
	C407.643097,212.022476 411.223145,210.737289 413.792511,208.434021 
	C415.012482,207.340378 417.038300,207.493408 418.521698,208.330795 
	C419.871796,209.092926 419.444031,210.623718 419.348389,211.944412 
	C419.171631,214.384415 417.268036,214.141678 415.689636,214.342453 
	C414.230011,214.528137 412.646240,214.306198 411.508667,216.152252 
z"/>
<path fill="#000000" opacity="1.000000" stroke="none" 
	d="
M297.766907,286.915161 
	C304.655487,281.857025 312.721497,284.287598 316.589630,291.714081 
	C317.870605,294.173401 320.569336,296.309082 318.656647,299.032410 
	C316.334656,302.338470 313.752258,305.732086 309.435730,306.910767 
	C304.028900,308.387115 300.767670,304.177979 297.218445,301.734070 
	C291.982300,298.128662 292.394196,294.282898 297.766907,286.915161 
z"/>
<path fill="#000000" opacity="1.000000" stroke="none" 
	d="
M334.459290,710.237488 
	C337.415314,714.671082 340.757172,718.238586 346.276703,720.688782 
	C342.760193,722.615906 340.773590,722.953064 338.636108,720.763428 
	C337.083801,719.173218 335.166473,717.935608 333.391266,716.567627 
	C330.833740,714.596619 331.101379,712.103638 334.459290,710.237488 
z"/>
</svg>